<svg xmlns="http://www.w3.org/2000/svg" width="256" height="256"><path fill="#1976D2" fill-opacity=".063" fill-rule="evenodd" d="M0 128.004v128.004l128.25-.254 128.25-.254.254-127.75L257.008 0H0v128.004m.485.496c0 70.4.119 99.053.265 63.672.146-35.38.146-92.98 0-128C.604 29.153.485 58.1.485 128.5"/><path fill="#1976D2" fill-opacity=".226" fill-rule="evenodd" d="M1.76 2.25C2.92 3.488 5.443 8.775 7.368 14c4.096 11.117 4.678 10.889 1.176-.46C7.193 9.161 6.213 5.454 6.367 5.3c.835-.835 3.806 2.623 4.066 4.734 2.288 18.519 2.638 22.228 2.145 22.722-.318.317-.578-.242-.578-1.243C12 29.747 2.665 10.464.884 8.55.372 7.999 0 59.823 0 131.804v124.204l128.25-.254 128.25-.254.299-120.5c.164-66.275.013-123.762-.335-127.75-.635-7.249-.635-7.25-3.637-7.25-1.651 0-5.818 1.575-9.261 3.5-3.442 1.925-6.924 3.5-7.738 3.5-.814 0-2.559-1.149-3.877-2.553-2.023-2.152-2.168-2.698-.925-3.484.917-.58-36.101-.938-97.931-.948-95.35-.014-99.339.058-97.79 1.77C36.895 3.542 46.109 5.992 51 5.959c10.655-.073 15.707 2.036 14.211 5.934-.438 1.142-.788.981-1.542-.708-1.03-2.309-4.084-2.94-5.233-1.081-1.035 1.674-1.415 10.208-.507 11.372.439.563 1.066 6.424 1.392 13.024l.594 12-1.952-5.049c-1.074-2.778-4.455-8.083-7.513-11.79-3.057-3.707-7.11-9.387-9.006-12.622C36.901 9.289 28.36 0 25.775 0c-1.732 0-1.945.471-1.47 3.25l.555 3.25-1.433-3.25L21.994 0H-.349L1.76 2.25M.485 132c0 68.475.119 96.488.265 62.25.146-34.237.146-90.262 0-124.5C.604 35.513.485 63.525.485 132M196.41 10.499c-1.894 1.895-2.346 2.923-1.509 3.44 1.732 1.07.494 1.888-14.901 9.84-13.134 6.785-15.888 7.921-24.75 10.203-2.338.602-4.25 1.461-4.25 1.908 0 .447 2.934 1.607 6.52 2.578 6.138 1.662 6.908 1.668 13.139.103 12.185-3.061 22.152-9.726 29.859-19.965 3.025-4.02 6.509-7.795 7.741-8.39 2.076-1.001 1.983-1.087-1.259-1.162-1.925-.045-4.487-.346-5.694-.67-1.561-.418-2.972.191-4.896 2.115m-26.745 1.523c-1.559.468-3.479.603-4.268.3-.788-.302-2.845.035-4.571.75l-3.139 1.3 3.907 1.209 3.906 1.209-4.55.105c-2.503.058-4.989-.334-5.525-.87-.633-.633-4.821.291-11.95 2.639L131 22.77c-2.537.833 12.26 3.336 16.263 2.752 4.237-.619 14.277-5.228 18.328-8.415 1.473-1.159 3.243-2.107 3.933-2.107s2.317-.885 3.615-1.967c2.582-2.151 1.437-2.484-3.474-1.011m83.552 3.235c-2.273 2.431-2.274 2.451-.336 4.842 2.486 3.066 3.324 2.183 2.932-3.087l-.313-4.195-2.283 2.44M65 21c0 .55.477 1 1.059 1s.781-.45.441-1-.816-1-1.059-1-.441.45-.441 1m10.762-.293c1.244.239 3.044.23 4-.02s-.062-.446-2.262-.435c-2.2.011-2.982.216-1.738.455m132.161 5.543c-6.228 7.559-11.606 12.031-18.923 15.736-6.891 3.49-21.142 8.54-26.745 9.477-2.334.391-4.438 1.024-4.674 1.406-.237.383 1.192 1.806 3.175 3.163 3.002 2.055 4.788 2.466 10.675 2.457 11.294-.019 19.032-4.422 39.698-22.59 3.504-3.08 8.508-6.835 11.121-8.345 2.613-1.509 4.75-2.917 4.75-3.129 0-1.06-8.306-4.425-10.924-4.425-2.468 0-3.921 1.114-8.153 6.25M105 22c0 .55.45 1 1 1s1-.45 1-1-.45-1-1-1-1 .45-1 1m-14 3c0 .55.702 1 1.559 1s1.281-.45.941-1c-.34-.55-1.041-1-1.559-1S91 24.45 91 25m23 1.441c0 .857.45 1.559 1 1.559s1-.423 1-.941-.45-1.219-1-1.559c-.55-.34-1 .084-1 .941m16 .153c0 1.545 2.557 1.932 3.43.52.301-.488-.347-1.121-1.441-1.407-1.289-.337-1.989-.025-1.989.887m-30.756 2.07C97.668 29.3 98.626 31 100.559 31c.793 0 1.441-.675 1.441-1.5 0-1.542-.573-1.716-2.756-.836M72 33.059c0 .582.45.781 1 .441s1-.816 1-1.059S73.55 32 73 32s-1 .477-1 1.059M63.057 52c.073 27.881.912 42 2.496 42 .704 0 1.452-.516 1.663-1.148.21-.631 4.41-2.125 9.333-3.321C88.6 86.605 97.968 82.876 97.98 81c.006-.825-1.043-2.816-2.329-4.424l-2.34-2.923-7.405 2.813a13028.82 13028.82 0 0 0-12.675 4.822c-2.897 1.104-5.424 1.829-5.614 1.61-.19-.219-.627-5.798-.971-12.398-1.531-29.37-1.966-35.091-2.777-36.5-.505-.878-.842 6.59-.812 18m44.439-17.993c-.343.554.1 1.285.984 1.624 1.914.734 2.981-.075 2.061-1.564-.83-1.344-2.235-1.371-3.045-.06M78.5 36c-.34.55-.141 1 .441 1S80 36.55 80 36s-.198-1-.441-1-.719.45-1.059 1m57.983 3.51c1.641 1.34 4.791 2.687 7 2.993 4.374.605 10.085-.592 9.903-2.075-.188-1.53-7.483-3.272-13.886-3.315l-6-.041 2.983 2.438M117.5 39c-.34.55.11 1 1 1s1.34-.45 1-1c-.34-.55-.79-1-1-1-.21 0-.66.45-1 1m106.731 2.042c-3.348 1.673-10.057 6.627-14.909 11.007-9.398 8.485-18.531 13.89-27.072 16.02-2.887.72-5.25 1.651-5.25 2.069 0 .418 1.575 1.961 3.499 3.429 6.94 5.294 17.815 1.947 32.491-9.999 8.213-6.685 17.672-12.027 28.51-16.102 3.3-1.241 5.96-2.641 5.91-3.111-.153-1.468-10.754-6.236-14-6.297-1.7-.032-5.83 1.311-9.179 2.984M35 47.864c0 5.886.572 9.489 2.121 13.349 1.166 2.908 2.081 6.732 2.032 8.498-.113 4.073.759 4.588 3.714 2.195 2.288-1.852 2.337-2.207 1.669-12.027-.78-11.476-1.411-13.244-6.149-17.227L35 39.803v8.061m50.636-6.37c.316.822.976 1.246 1.469.941 1.412-.872 1.044-2.435-.574-2.435-.892 0-1.243.587-.895 1.494M103 42c0 .55.477 1 1.059 1s.781-.45.441-1-.816-1-1.059-1-.441.45-.441 1m29 0c0 .55.477 1 1.059 1s.781-.45.441-1-.816-1-1.059-1-.441.45-.441 1m-57 1.941c0 .518.45 1.219 1 1.559.55.34 1-.084 1-.941S76.55 43 76 43s-1 .423-1 .941m19 2.618c0 .857.45 1.281 1 .941.55-.34 1-1.041 1-1.559S95.55 45 95 45s-1 .702-1 1.559m18.694 1.08c-.799.799.104 2.361 1.365 2.361.518 0 .941-.675.941-1.5 0-1.546-1.18-1.987-2.306-.861m-30.958.959c-.902.901.339 3.473 1.369 2.837.492-.304.895-1.201.895-1.994 0-1.473-1.191-1.916-2.264-.843M71 52c0 .55.45 1 1 1s1-.45 1-1-.45-1-1-1-1 .45-1 1m32 0c0 .55.477 1 1.059 1s.781-.45.441-1-.816-1-1.059-1-.441.45-.441 1m19.5 1c-.816 1.32.38 3.192 1.569 2.457 1.215-.75 1.207-3.457-.01-3.457-.518 0-1.219.45-1.559 1m14-.306c-3.349.838-3.9 2.047-2.149 4.719.907 1.384 1.649 3.207 1.649 4.052 0 2.124 1.273 1.937 7.173-1.053l5.106-2.587-2.389-2.351c-2.563-2.521-6.162-3.587-9.39-2.78m-48.054 1.393c-.369.598-.21 1.549.354 2.113 1.262 1.262 3.2.196 3.2-1.759 0-1.684-2.574-1.94-3.554-.354m8.284 5.226c-.666 1.816.274 3.687 1.853 3.687 1.844 0 1.844-3.622 0-4.33-.78-.299-1.613-.01-1.853.643M239 64.288c-9.99 4.007-30.27 15.607-25 14.299 1.375-.341 5.897-1.12 10.048-1.731 6.936-1.02 7.727-1.382 9.744-4.46 2.326-3.549 6.966-6.354 13.97-8.446 2.344-.701 4.762-1.876 5.372-2.612 2.097-2.527-3.282-1.404-14.134 2.95M82 62c0 .55.45 1 1 1s1-.45 1-1-.45-1-1-1-1 .45-1 1M59.737 77.75c-.306 7.688-.148 14.169.358 14.7.542.569.905-4.943.905-13.75 0-8.085-.161-14.7-.358-14.7-.197 0-.605 6.188-.905 13.75M72.5 66c.34.55.816 1 1.059 1s.441-.45.441-1-.477-1-1.059-1-.781.45-.441 1m33 0c-.837 1.354.292 3 2.059 3 .793 0 1.441-.9 1.441-2 0-2.07-2.413-2.76-3.5-1m43.5 4.5c-4.125 1.905-8.213 3.471-9.083 3.482-2.527.029-2.803.939-1.238 4.077 1.442 2.89 4.706 4.438 8.821 4.183 3.144-.195 17.5-7.501 17.5-8.906 0-1.115-6.635-6.366-7.982-6.318-.285.011-3.893 1.577-8.018 3.482m-72 1c0 .825.675 1.5 1.5 1.5s1.5-.675 1.5-1.5-.675-1.5-1.5-1.5-1.5.675-1.5 1.5m34.7 3.357-5.799 1.694 2.799 3.669c3.366 4.412 5.903 5.109 13.8 3.792 3.3-.55 8.111-1.003 10.691-1.006 2.58-.003 4.944-.416 5.254-.917.902-1.459-14.174-9.1-17.772-9.008-1.745.045-5.783.844-8.973 1.776M161 90.002c-8.932 3.926-14.674 4.599-21.084 2.47-4.762-1.581-5.596-1.59-11.279-.118-3.375.874-8.802 2.052-12.059 2.616-3.258.564-7.05 1.765-8.428 2.667-2.377 1.558-2.595 1.532-4.238-.497-2.166-2.675-4.44-2.642-14.136.208l-7.723 2.269 3.546 1.283c3.383 1.223 3.468 1.368 1.855 3.151-2.445 2.702-9.282 17.725-11.55 25.382-1.466 4.948.577 1.459 3.474-5.933 1.51-3.85 4.179-9.7 5.933-13l3.189-6 6-.672c3.3-.369 7.226-.938 8.724-1.265 2.161-.47 2.604-.279 2.143.922-.569 1.484-2.815 1.892-10.866 1.974-2.2.023-4.039.491-4.087 1.041-.048.55-.347 1.675-.665 2.5-.622 1.613-1.856 8.541-1.959 11-.034.825-.522 2.082-1.084 2.792-1.445 1.829.127 3.035 4.541 3.486 2.062.211 4.087.757 4.5 1.213.414.456.191.506-.497.11-.687-.395-1.25-.212-1.25.407 0 .643-.798.873-1.859.537-1.591-.505-5.216 1.979-4.034 2.764 1.007.669 14.107 5.078 20.278 6.824 6.484 1.835 15.105 1.824 16.615-.022.882-1.078 8.012-4.111 9.665-4.111 1.233 0 1.488-.741 1.119-3.25-.854-5.819.312-7.909 5.236-9.378 3.997-1.192 4.615-1.156 5.73.337.688.92 1.25 2.412 1.25 3.315 0 .904.298 1.941.663 2.305.364.365.822 2.122 1.017 3.906.199 1.818 1.446 4.254 2.838 5.544 1.365 1.266 2.482 2.698 2.482 3.182s1.422 1.192 3.159 1.574c2.609.573 3.477.282 4.978-1.671 2.921-3.797 2.28-6.561-1.387-5.982-.412.065-.75-.359-.75-.941s-.408-.807-.907-.499c-.498.309-.74-.227-.536-1.191.261-1.228-2.306-3.842-8.593-8.751-13.828-10.798-18.735-12.47-23.538-8.019-1.473 1.365-3.035 2.261-3.472 1.991-.436-.27-1.737.708-2.89 2.174-2.933 3.728-8.265 7.491-9.787 6.907-.702-.27-1.277-.247-1.277.05 0 1.212 2.652 2.914 4.94 3.169 1.341.149 3.816 1.154 5.5 2.233 3.06 1.961 3.06 1.961.56 2.093-4.371.231-6.376-.235-11.596-2.696-2.804-1.321-5.729-2.409-6.5-2.417-2.574-.028 1.36-1.95 4.096-2.001l2.5-.047-2.75-2.052c-1.675-1.25-2.75-2.996-2.75-4.468 0-1.705-.558-2.417-1.893-2.417-3.771 0-2.862-2.617 2.101-6.049 2.746-1.898 7.139-5.371 9.764-7.718l4.772-4.267 8.378-.055c4.608-.03 9.154.246 10.103.614 1.566.608 1.589.933.25 3.523-2 3.868-1.923 4.004 1.579 2.783 2.486-.866 3.278-.769 4.25.524 1.085 1.44 1.603 1.404 5.555-.384 4.943-2.235 6.575-2.482 5.561-.841-.413.667-.167.952.601.696.714-.238 2.053-1.839 2.974-3.557 1.639-3.056 1.73-3.088 4.116-1.447 3.204 2.203 7.573 6.72 8.901 9.2.582 1.088 1.656 1.978 2.386 1.978.73 0 3.639 4.594 6.465 10.209 2.825 5.615 5.137 9.264 5.137 8.107 0-1.156.675-2.361 1.5-2.678.825-.316 1.5-.139 1.5.393 0 1.657 2.604 1.065 4.492-1.022 1.751-1.935 1.693-2.157-2.012-7.75-7.801-11.777-14.645-19.485-18.726-21.088l-3.935-1.546 5.226-2.648 5.226-2.648-3.04-2.164c-3.918-2.791-6.296-2.651-14.231.837m4.327 38.6c-1.746.738-3.505 1.917-3.911 2.62-.405.703-.364.94.093.526.456-.414 1.679.017 2.718.958 2.159 1.954 5.024.847 5.617-2.169.535-2.721-1.051-3.401-4.517-1.935M245 144.389a8265.985 8265.985 0 0 1-18.5 10.005c-8.524 4.594-12.951 7.569-9.5 6.386.825-.283 4.875-1.552 9-2.82 4.125-1.268 12.45-4.213 18.5-6.543l11-4.238.307-4.089c.17-2.25-.055-4.037-.5-3.973-.444.064-5.082 2.437-10.307 5.272m-69.191-.558c-2.811 2.032-3.567 3.18-3.169 4.811 1.115 4.569-6.193 13.205-8.891 10.507-1.814-1.814-2.515-1.389-3.717 2.254-1.138 3.448-4.302 5.198-7.31 4.044-.927-.356-1.865.484-2.647 2.371-1.424 3.439-5.198 5.44-8.632 4.578-1.471-.369-2.443-.179-2.443.477 0 2.884 13.257 2.233 24.113-1.185 5.141-1.618 14.98-3.884 26.887-6.193 4.675-.906 9.25-1.857 10.167-2.112 1.246-.348-.14-2.119-5.5-7.025-3.942-3.608-8.967-8.503-11.167-10.878l-4-4.318-3.691 2.669m-55.112-.426c-1.372 1.06-1.492 1.539-.5 2.004 1.81.848-4.239-.092-6.694-1.041-1.953-.754-1.958-.711-.219 1.943 1.771 2.702 1.766 2.719-.982 3.764-3.426 1.303-4.267 2.58-4.287 6.508-.022 4.559.827 4.676 4.329.595 1.736-2.023 3.494-3.828 3.906-4.011.412-.184.75-1.196.75-2.25s.661-1.917 1.469-1.917c2.462 0 9.64-4.171 9.246-5.373-.549-1.677-4.954-1.816-7.018-.222M197 146.064c-3.575 2.143-6.15 3.906-5.721 3.916 1.632.041 12.721-6.056 12.721-6.994 0-1.224.667-1.517-7 3.078m-90.431-.384c-.863 2.25-.79 2.32 2.431 2.32 3.096 0 3.945-1.292 1.75-2.663-2.122-1.325-3.587-1.205-4.181.343m-13.668 4.426c-1.595 1.708-2.901 3.696-2.901 4.418s-.267 2.137-.594 3.144c-.455 1.402-.363 1.507.392.447.659-.925 1.882-1.161 3.678-.71 1.606.403 2.456.294 2.107-.271-.322-.52 1.201-2.423 3.383-4.228 3.039-2.513 3.713-3.588 2.878-4.594-1.9-2.289-5.874-1.492-8.943 1.794m-78.151 1.556c.688.278 1.813.278 2.5 0 .688-.277.125-.504-1.25-.504s-1.937.227-1.25.504m58.378 1.1c-.735 1.371-.896 5.193-.473 11.156l.644 9.07 3.6 1.001c1.981.55 10.899 1.002 19.82 1.005 13.722.005 16.133-.216 15.665-1.437-.416-1.082-1.158-1.213-2.969-.525-3.656 1.39-7.039-.363-8.347-4.326-.953-2.886-1.509-3.344-3.579-2.949-1.349.258-3.577.187-4.952-.158-2.777-.697-6.006-5.933-5.106-8.279 1.071-2.792-.603-3.507-2.981-1.273-3.177 2.984-7.11 1.992-8.891-2.244-1.265-3.009-1.357-3.048-2.431-1.041m20.539-1.095c-.367.366-.667 1.131-.667 1.7 0 .626.466.567 1.183-.15.651-.651.951-1.416.667-1.7-.284-.285-.817-.217-1.183.15m28 7c-.367.366-.667 1.321-.667 2.122 0 1.181.283 1.221 1.5.211.825-.685 1.5-1.64 1.5-2.122 0-1.036-1.384-1.161-2.333-.211M45 161c-.901.582-1.025.975-.309.985.655.008 1.469-.435 1.809-.985.767-1.242.421-1.242-1.5 0m21.041 3.943c-2.417 3.393-2.075 6.403.666 5.875 1.869-.36 3.483-5.893 2.284-7.832-.478-.775-1.477-.113-2.95 1.957M118 167.25c0 .412.873.75 1.941.75s2.15-.338 2.404-.75c.255-.412-.618-.75-1.94-.75-1.323 0-2.405.338-2.405.75m-3.5 1.75c-.34.55.084 1 .941 1s1.559-.45 1.559-1-.423-1-.941-1-1.219.45-1.559 1m-77.936 5.293c.376.986.935 1.541 1.243 1.233.308-.307.001-1.114-.683-1.793-.988-.98-1.102-.865-.56.56m73.936 9.794c-3.3.459-8.025 1.252-10.5 1.764l-4.5.93 5.691.109c6.356.123 9.262 2.102 3.118 2.124-2.095.007-4.79.277-5.99.598-4.141 1.111-3.924 5.827.343 7.45 2.981 1.133 4.01 3.632 2.496 6.057-1.579 2.528-1.454 3.209.453 2.477 1.18-.453 1.448-.192 1 .974-.336.877-.611 2.232-.611 3.012 0 .78-.633 1.418-1.406 1.418-.928 0-1.223.701-.868 2.059.39 1.493-.023 2.206-1.501 2.593-2.007.524-2.009.564-.133 2.44 2.126 2.126 3.416 2.539 2.303.738-.493-.798-.168-.957 1.023-.5.96.369 2.864.67 4.231.67 1.976 0 2.364.385 1.89 1.876-.424 1.336-.011 2.029 1.433 2.406 1.191.312 2.028.044 2.028-.648 0-.839 2.673-1.108 9.25-.931 5.165.139 10.796-.272 12.75-.93 1.925-.648 3.994-1.083 4.599-.967.604.117 2.966-.447 5.25-1.253 4.419-1.559 4.46-1.532 4.182 2.697-.1 1.512.302 2.75.894 2.75.591 0 1.082-1.463 1.09-3.25.02-4.193 1.592-6.86 2.872-4.874.716 1.11 3.277 1.242 13.25.68 6.8-.383 14.163-1.104 16.363-1.602 8.296-1.878 16.779-.291 15.703 2.938-.272.815.097 1.177.922.906 2.185-.718 2.329-5.533.183-6.125-.994-.274-5.766-1.512-10.603-2.749-5.237-1.34-8.292-2.561-7.552-3.019.865-.534.498-1.051-1.205-1.698-4.467-1.697-9.377-3.368-15.786-5.372-3.485-1.09-8.279-3.464-10.652-5.276-2.373-1.811-5.433-3.574-6.799-3.917-1.863-.467-2.65-1.502-3.143-4.133l-.659-3.509-12.704.127c-6.988.07-15.405.502-18.705.96M250 186c0 .55.477 1 1.059 1s.781-.45.441-1-.816-1-1.059-1-.441.45-.441 1m-6.821 5.915c1.582 2.533 3.092 2.732 2.633.346-.184-.956-1.145-1.894-2.135-2.085-1.588-.305-1.646-.1-.498 1.739M248.5 197c.34.55.816 1 1.059 1s.441-.45.441-1-.477-1-1.059-1-.781.45-.441 1M90.485 207.025c-.831 1.344 1.351 2.166 3.121 1.176 1.413-.791 1.35-.979-.491-1.461-1.162-.304-2.346-.176-2.63.285M234.5 213c-.34.55-.168 1 .382 1s1.278-.45 1.618-1c.34-.55.168-1-.382-1s-1.278.45-1.618 1m-84.5 6.059c0 1.132.45 1.781 1 1.441.55-.34 1-1.266 1-2.059 0-.793-.45-1.441-1-1.441s-1 .927-1 2.059m-41 1c0 .582.45.781 1 .441s1-.816 1-1.059-.45-.441-1-.441-1 .477-1 1.059m68.278.459c-2.933 2.054-6.229 6.826-7.303 10.571-.754 2.627-.671 2.904.56 1.882.793-.659 1.194-1.6.891-2.091-.304-.492.122-1.153.947-1.47.826-.316 1.278-1.156 1.006-1.865-.272-.709 1.412-2.922 3.743-4.917 4.206-3.601 4.311-5.021.156-2.11M195 221c0 .55.477 1 1.059 1s.781-.45.441-1-.816-1-1.059-1-.441.45-.441 1m-114.5 2c-.995 1.1-1.398 2-.896 2 .503 0 1.477-.9 2.164-2s1.09-2 .895-2c-.194 0-1.168.9-2.163 2m116.5 1.059c0 .582.45.781 1 .441s1-.816 1-1.059-.45-.441-1-.441-1 .477-1 1.059m-91.869 3.43c-.547 1.981-.605 4.683-.133 6.25.792 2.635.834 2.59.916-.989.051-2.202.581-3.75 1.286-3.75.887 0 .907-.293.078-1.122-.617-.617-.884-1.742-.593-2.5.291-.758.277-1.378-.031-1.378-.308 0-.994 1.57-1.523 3.489m111.359-2.505c.271.438-1.079 1.542-2.999 2.453-4.318 2.049-4.46 4.03-.391 5.448 2.432.848 2.996.808 2.615-.185-.523-1.363 2.103-5.132 4.037-5.795.65-.223.072-.925-1.286-1.561-1.358-.637-2.247-.798-1.976-.36m-69.49.898c0 .55.45 1.278 1 1.618.55.34 1 .168 1-.382s-.45-1.278-1-1.618c-.55-.34-1-.168-1 .382M77.6 227.6c-.356.927-.422 1.911-.147 2.186.275.275.791-.259 1.147-1.186.356-.927.422-1.911.147-2.186-.275-.275-.791.259-1.147 1.186m70.805 2.546c-1.895 2.134-1.893 2.139.345.964 1.238-.649 2.25-1.615 2.25-2.145 0-1.421-.479-1.203-2.595 1.181m-41.405.913c0 .582.45.781 1 .441s1-.816 1-1.059-.45-.441-1-.441-1 .477-1 1.059m-5.969 3.441c0 .55.436 1.675.969 2.5.533.825.969 1.05.969.5s-.436-1.675-.969-2.5c-.533-.825-.969-1.05-.969-.5m9.374 2.75-1.905 2.25 2.25-1.905c2.114-1.79 2.705-2.595 1.905-2.595-.19 0-1.202 1.012-2.25 2.25m-7.326 3.333c.048 1.165.285 1.402.604.605.289-.722.253-1.585-.079-1.917-.332-.332-.568.258-.525 1.312"/><path fill="#1976D2" fill-opacity=".627" fill-rule="evenodd" d="M1.226 1.25c.216.688 1.894 2.013 3.728 2.945 1.835.932 3.833 2.187 4.441 2.788 1.133 1.123 4.604 24.876 3.845 26.318-.232.441-2.854-4.485-5.828-10.947C4.439 15.893 1.538 10.138.967 9.567.248 8.848-.037 22.159.041 52.737l.113 44.208 2.423-1.587c2.608-1.709 3.1-2.509 1.298-2.108-.619.138-1.352-.375-1.63-1.139-.31-.855-.067-1.119.632-.687.626.387 1.413-.017 1.751-.897.56-1.459.833-1.455 3.127.048l2.514 1.648-1.634-2.334c-1.749-2.497-2.103-3.99-.885-3.728.412.089 1.971-.343 3.463-.961 1.993-.825 3.556-.828 5.896-.012l3.183 1.11-3.396 1.809c-3.639 1.939-3.494 2.45.289 1.015C19.804 88.129 28 86.856 28 87.443c0 .211-3.038 1.361-6.75 2.555-3.713 1.195-9.594 3.484-13.07 5.087C4.704 96.688 1.442 98 .93 98 .419 98 0 102.5 0 108s.259 10 .576 10c.317 0 3.129-1.959 6.25-4.354s7.207-5.143 9.08-6.107c3.365-1.73 4.562-2.575 7.892-5.569a67.431 67.431 0 0 1 3.644-3c1.57-1.188 1.78-1.201 1.097-.068-.908 1.507 11.471-4.735 12.696-6.402.489-.667.745-.667.765 0 .017.55.397.422.845-.284.894-1.409 4.155-.614 4.155 1.013 0 .559-.74.402-1.644-.349-1.468-1.218-1.564-1.11-.893 1.003.517 1.629.406 2.154-.356 1.683-.629-.388-1.107-.01-1.107.875 0 .857.788 1.595 1.75 1.638 1.289.058 1.378.226.337.638-.777.307-2.044-.291-2.816-1.329-1.313-1.767-1.364-1.727-.796.612.515 2.123.11 2.713-2.684 3.914-5.996 2.577-16.283 7.577-16.791 8.162-1.341 1.543-17.419 8.783-18.299 8.239-.574-.355-.702-.126-.296.53.451.73-.044 1.155-1.346 1.155C.001 120 0 120.017 0 188v68h33c21.333 0 33-.354 33-1 0-.55.702-1 1.559-1s1.281.45.941 1c-.98 1.585 6.75 1.125 8.941-.532 1.414-1.069 1.55-1.485.5-1.531-.819-.036-.544-.427.638-.905 1.143-.462 2.82-2.346 3.727-4.186.907-1.841 1.659-2.783 1.671-2.096.013.688.81 1.28 1.773 1.318 1.445.056 1.378.247-.386 1.102-2.378 1.151-5.013 5.83-3.284 5.83.571 0 .795.394.498.874-.302.488 9.692.953 22.6 1.051 18.059.138 23.322-.109 23.966-1.124.634-.999.829-1.011.841-.051.022 1.782 21.634 1.782 22.353 0 .403-1 .52-1 .583 0 .049.77 1.52 1.238 3.829 1.22 3.079-.025 3.431-.217 1.966-1.069-1.471-.856-1.754-2.255-1.611-7.943.106-4.186.558-6.666 1.149-6.301.536.331.74 2.353.453 4.494-.33 2.46-.053 4.36.753 5.167.702.701 1.592 2.271 1.979 3.488l.702 2.213 47.179-.259 47.18-.26.284-119.5c.156-65.725.003-123.213-.34-127.75-.753-9.965-.971-10.04-11.904-4.143l-7.614 4.107-10.77-.704-10.769-.703-4.725 3.188c-2.598 1.754-7.159 6.202-10.135 9.886-8.69 10.755-20.612 17.906-33.527 20.109-3.575.61-10.1 1.763-14.5 2.564-4.4.8-11.037 1.453-14.75 1.451-6.7-.005-6.75-.026-6.735-2.755.009-1.513.346-3.245.75-3.85.404-.606 4.346-1.395 8.758-1.755 19.38-1.58 41.537-11.464 52.977-23.632 4.374-4.653 6.526-5.484 22-8.498 7.7-1.499 14.187-2.903 14.417-3.12.229-.217-22.721-.351-51-.297L127.5.196l5.678 2.596c3.123 1.428 6.116 3.557 6.651 4.732.935 2.053.495 2.241-11.178 4.769-20.926 4.533-48.828 9.569-56.901 10.269-8.611.748-7.796 1.426-8.315-6.914-.26-4.181-1.87-6.664-3.305-5.098-1.448 1.58-2.16 10.02-.948 11.232.732.732 1.223 10.9 1.469 30.409.204 16.12.548 31.897.765 35.059.319 4.653.104 5.75-1.127 5.75-1.335 0-1.432-2.428-.796-19.815 1.005-27.452.038-31.734-9.975-44.185-2.875-3.575-6.932-9.2-9.015-12.5C35.059 7.876 28.069 0 25.859 0c-2.004 0-1.959 1.51.251 8.477 1.455 4.587-.623 1.624-2.614-3.727L21.728 0H11.281C3.38 0 .929.305 1.226 1.25m175.753 2.189c-1.937.714-5.85 2.731-8.697 4.482-2.846 1.752-8.237 4.234-11.979 5.517a5502.188 5502.188 0 0 1-14.803 5.046c-12.528 4.25-12.5 4.234-12.5 6.936 0 1.354.353 2.68.785 2.947.432.267 5.27-.165 10.75-.959 8.558-1.241 11.557-2.239 21.237-7.07 6.2-3.094 13.175-7.276 15.5-9.294 2.326-2.018 5.341-4.428 6.701-5.356 1.992-1.36 2.126-1.688.69-1.688-.979 0-1.503-.45-1.163-1 .835-1.35-2.226-1.145-6.521.439M14.11 8c-.009 1.925.585 6.425 1.321 10l1.338 6.5-.532-8C15.658 7.798 14.14 1.731 14.11 8M.412 50.5c-.034 23.1.11 40.088.32 37.75.321-3.564.737-4.261 2.575-4.32 1.206-.039 3.093-.496 4.193-1.017 1.468-.694.873-.806-2.238-.42l-4.238.527L.75 45.76.475 8.5l-.063 42m251.124-35.285c-2.18 1.584-4.066 2.981-4.189 3.105-.124.124-.444 1.43-.711 2.903-.454 2.505-.198 2.72 3.985 3.347 2.459.369 4.698.444 4.976.166.277-.277.369-3.181.204-6.453l-.301-5.949-3.964 2.881m-32.511 1.881c-3.918.767-5.661 2.114-14 10.817-10.567 11.029-16.272 14.5-33.314 20.27-7.965 2.696-11.129 3.201-23.39 3.73-7.799.336-14.509.941-14.912 1.344-.712.713 1.037 7.228 2.634 9.813.61.987 2.361.513 7.562-2.047l6.767-3.332 10.81 1.286c18.657 2.219 24.489-.463 51.965-23.895 8.446-7.202 14.979-10.094 24.415-10.808 4.148-.314 7.181-.905 6.74-1.314-1.781-1.65-15.933-6.953-18.283-6.85-1.385.06-4.533.504-6.994.986M120 20.469c0 .894.586 1.243 1.5.893.825-.317 1.5-.978 1.5-1.469 0-.491-.675-.893-1.5-.893s-1.5.661-1.5 1.469m-15.495.523c-.337.546-.245 1.65.205 2.455 1.097 1.96 3.786.288 2.967-1.846-.692-1.803-2.25-2.102-3.172-.609m-76.193 2.773c-.886.579-.576 2.647 1.221 8.133 2.325 7.098 5.688 28.864 7.072 45.764 1.212 14.805 3.675 14.044 9.172-2.835 5.63-17.286 5.716-18.092 2.631-24.613-1.43-3.022-3.485-7.569-4.568-10.105-1.083-2.535-3.086-5.781-4.452-7.213-1.366-1.433-3.3-4.133-4.298-6-1.802-3.373-4.501-4.619-6.778-3.131m62.373.613c-.679 1.771 1.154 3.621 2.919 2.944 1.008-.387 1.097-1.013.343-2.422-1.198-2.238-2.522-2.45-3.262-.522m-27.834 4.53c-.193 2.772-.209 18.515-.035 34.985.275 26.021.521 30.022 1.877 30.543.859.329 2.066-.013 2.684-.76.618-.747 4.948-2.361 9.623-3.586 4.675-1.226 11.409-3.375 14.965-4.777 5.534-2.181 7.262-2.435 12-1.758 7.412 1.058 16.796 1.061 33.035.012 12.945-.836 13.825-1.035 21.404-4.844 7.667-3.853 8.101-3.948 14.5-3.182 3.628.435 9.746.805 13.596.822 8.884.04 15.573-3.002 26.311-11.964 8.347-6.968 19.311-12.937 31.617-17.214 4.361-1.516 8.097-3.261 8.303-3.879.206-.618-1.303-2.402-3.354-3.965-3.293-2.51-4.553-2.838-10.803-2.819-6.272.02-7.901.462-14.376 3.901-4.016 2.134-10.991 7.222-15.5 11.307-14.864 13.467-28.379 18.761-41.956 16.433-9.736-1.67-11.134-1.517-18.463 2.018-7.568 3.65-14.567 4.566-22.264 2.916-4.234-.908-6.457-.834-11.388.378-8.046 1.979-10.978 2.167-17.859 1.148-5.349-.792-6.429-.575-16.217 3.264C74.784 80.149 69.407 82 68.602 82c-1.103 0-1.42-1.167-1.287-4.75.473-12.789-2.281-51.55-3.769-53.037-.189-.189-.502 1.923-.695 4.695m50.699-3.178c-.734 1.912.825 3.775 2.363 2.824 1.542-.953 1.347-3.24-.33-3.884-.78-.299-1.694.178-2.033 1.06m-14.977 2.94c-.648 1.69.882 3.287 3.177 3.315 1.589.019 1.619-2.216.05-3.785-1.631-1.631-2.468-1.509-3.227.47m-30.99.196c-.431.697-.513 1.537-.183 1.867.895.895 1.871-.421 1.387-1.871-.338-1.016-.574-1.016-1.204.004m54.863 1.221c-.858 1.389 1.044 3.346 2.423 2.494 1.149-.71.413-3.581-.917-3.581-.459 0-1.136.489-1.506 1.087M86 31c0 .55.702 1 1.559 1s1.281-.45.941-1c-.34-.55-1.041-1-1.559-1S86 30.45 86 31m-13.531 1.05c-.95 1.538.351 2.53 1.635 1.246.718-.718.735-1.277.052-1.699-.56-.346-1.319-.142-1.687.453m34.803 1.078c-1.642 1.642.525 4.738 2.885 4.121 2.255-.59 2.437-3.807.261-4.642-2.008-.771-1.824-.801-3.146.521m-29.879 3.454c.334.87.607 1.756.607 1.968 0 .213.675.128 1.5-.188 2.254-.865 1.803-3.362-.607-3.362-1.51 0-1.935.448-1.5 1.582m16.103-.575c-.343.554.1 1.285.984 1.624 1.914.734 2.981-.075 2.061-1.564-.83-1.344-2.235-1.371-3.045-.06m23.078 2.66c-.352.917-.284 2.023.152 2.459 1.261 1.261 3.627-.763 2.951-2.525-.797-2.078-2.292-2.046-3.103.066m-46.907 0C68.516 39.817 68.938 41 70.5 41c.825 0 1.5-.675 1.5-1.5 0-1.562-1.183-1.984-2.333-.833m14.924 1.186c-.29.469.021 1.585.691 2.481 1.513 2.023 4.292.604 3.395-1.733-.654-1.703-3.207-2.171-4.086-.748m17.857 1.44c-.837 2.16-.169 3.001 2.024 2.545 1.452-.301 1.468-.554.15-2.338-1.391-1.881-1.52-1.894-2.174-.207m-27.834 1.27C73.846 44.565 74.94 47 76.607 47c1.841 0 1.82-4.622-.024-5.33a1.534 1.534 0 0 0-1.969.893m18.974 2.294c-.869 1.406.468 4.291 1.785 3.852 1.48-.493 1.456-3.933-.031-4.428-.637-.213-1.426.047-1.754.576m-12.352 3.307c-.868.868-.893 1.545-.09 2.512 1.769 2.132 4.035 1.609 3.674-.848-.381-2.586-1.938-3.31-3.584-1.664m30.334-.277c-.301.487.074 1.403.835 2.034 1.062.882 1.756.775 2.989-.458.883-.883 1.606-1.799 1.606-2.034 0-.83-4.889-.418-5.43.458M70.5 51c-.729 1.18.217 3 1.559 3 .518 0 .941-.9.941-2 0-2.109-1.455-2.691-2.5-1m32.223-.091c-1.525.546-1.588.893-.447 2.454 1.11 1.518 1.517 1.591 2.469.444 1.516-1.827.211-3.697-2.022-2.898m19.333 1.524c-.6.722-.829 1.996-.509 2.83.789 2.055 4.453 1.008 4.453-1.273 0-2.274-2.523-3.27-3.944-1.557m-33.74.651c-1.082 1.082-.65 4.93.551 4.901 2.625-.064 4.694-4.556 2.488-5.402-1.933-.742-1.769-.769-3.039.501m-12.56 2.493C74.744 56.59 76.098 59 77.68 59c.832 0 1.327-.722 1.143-1.667-.347-1.79-2.055-2.768-3.067-1.756m20.473 2.941C94.605 60.361 96.604 64 99.241 64c2.06 0 2.438-3.921.559-5.8-1.512-1.512-1.996-1.469-3.571.318m15.771.541c0 .582.45.781 1 .441s1-.816 1-1.059-.45-.441-1-.441-1 .477-1 1.059m140.5-.051c-9.867 2.224-24.483 8.876-36 16.385-7.674 5.004-7.628 5.289.5 3.107 3.025-.812 7.22-1.482 9.323-1.488 3.216-.01 4.408-.67 7.5-4.151 3.474-3.91 11.895-8.824 15.177-8.856 1.682-.017 7.779-4.589 7-5.249-.275-.233-1.85-.12-3.5.252M81.286 60.65c-.923.374-.94.932-.072 2.322C82.601 65.191 85 64.508 85 61.893c0-1.839-1.229-2.251-3.714-1.243m23.833 4.53c-1.484 2.377.038 4.82 3.003 4.82 2.487 0 2.526-4.114.055-5.657-1.486-.928-2.052-.773-3.058.837M72 66.083c0 2.437 2.337 2.093 2.823-.416.192-.987-.318-1.667-1.25-1.667-.927 0-1.573.855-1.573 2.083M88 67.5c0 .833.889 1.5 2 1.5s2-.667 2-1.5-.889-1.5-2-1.5-2 .667-2 1.5m-10.784 2.346c-.706.448-1.014 1.516-.685 2.373.775 2.022 4.677 1.093 4.267-1.015-.364-1.88-1.862-2.448-3.582-1.358M162 88.995c-8.572 3.854-13.782 4.556-22.134 2.98-5.469-1.032-7.686-1.046-10.952-.067-8.204 2.458-18.292 3.728-21.712 2.734-3.301-.96-7.163-.439-18.869 2.543-6.535 1.665-7.092 2.258-3.512 3.741l2.884 1.195-3.284 6.189c-4.845 9.13-9.591 21.513-9.201 24.008.269 1.723.623 1.341 1.684-1.818 2.009-5.982 12.033-26.896 12.613-26.316.278.277-.149 2.357-.948 4.622-.8 2.265-1.997 6.879-2.661 10.254-1.008 5.127-.977 6.283.192 7.023.998.632 1.041.891.15.902-.719.008-1.25 1.29-1.25 3.015 0 1.65.45 3 1 3s1.003.563 1.006 1.25c.014 3.218 2.14 8.417 3.441 8.417 1.097 0 1.206-.447.453-1.854-.546-1.02-.737-2.267-.425-2.772.312-.505-.23-1.382-1.204-1.949-1.538-.896-1.422-1.035.885-1.062 2.062-.023 2.553.369 2.191 1.75-.533 2.038 1.401 7.805 2.312 6.894.799-.799 4.341 1.128 4.341 2.361 0 .531-.853.965-1.896.965-3.107 0-8.104 6.516-8.104 10.566 0 4.326 2.047 5.329 5.437 2.662 1.372-1.079 2.305-2.153 2.073-2.385-.233-.232 1.398-2.19 3.624-4.35 4.039-3.92 4.043-3.931 1.957-5.621-3.034-2.456-2.563-3.167.909-1.372 1.65.853 3 2.039 3 2.634 0 .669 1.002.831 2.621.425 2.416-.606 2.494-.531 1 .963-.892.891-1.671 1.926-1.733 2.299-.061.374-.288 2.227-.503 4.118-.215 1.891-1.337 4.446-2.493 5.676-1.954 2.08-1.907 4.385.09 4.385.476 0 2.137-1.07 3.691-2.379 1.555-1.308 3.727-2.606 4.827-2.884 1.818-.459 1.795-.516-.25-.621-2.767-.143-2.918-1.688-.302-3.088 1.071-.573 2.746-2.393 3.721-4.045.975-1.651 2.236-2.839 2.802-2.64.566.2 2.518-.931 4.339-2.512 1.82-1.581 3.803-2.57 4.406-2.198.755.467.913-.45.507-2.95-.782-4.823 1.643-7.892 6.469-8.185 5.316-.323 5.706-.842 4.582-6.108-.776-3.642-.699-4.819.363-5.474 1.975-1.221 5.354 1.403 5.416 4.206.075 3.344 2.031 6.703 6.772 11.628 2.424 2.518 5.004 4.25 6.332 4.25 2.282 0 7.343-5.491 7.343-7.967 0-1.012.306-1.024 1.473-.055 1.21 1.004 2.058.605 4.75-2.234 1.802-1.901 4.756-4.216 6.563-5.145l3.287-1.688.997 2.794c.548 1.537 1.864 4.595 2.923 6.795 1.461 3.034 1.789 3.336 1.358 1.25-.398-1.926-.161-2.755.791-2.765 1.143-.013 1.143-.152.001-.875-1.043-.662-1.075-1.034-.138-1.613.68-.421 1.604-.145 2.091.625.832 1.313.992 1.173 1.279-1.122.069-.55.382-.887.696-.75.754.329 3.929-2.867 3.929-3.955 0-1.028-8.799-13.697-15-21.598-2.475-3.154-6.178-6.565-8.23-7.58l-3.729-1.846 8.729-3.963c4.802-2.179 9.75-4.378 10.997-4.885 1.615-.658-.975-.985-9-1.137-10.542-.2-11.685-.026-17.767 2.709m-105.921.588c.048 1.165.285 1.402.604.605.289-.722.253-1.585-.079-1.917-.332-.332-.568.258-.525 1.312m-3.329 6.079c.688.278 1.813.278 2.5 0 .688-.277.125-.504-1.25-.504s-1.937.227-1.25.504M.37 108c0 5.775.165 8.138.367 5.25.202-2.888.202-7.612 0-10.5S.37 102.225.37 108m116.636-6.011c-.586 1.095-4.396 4.237-8.467 6.984-8.471 5.717-9.549 6.95-6.721 7.69 1.11.29 2.542 1.792 3.182 3.337 1.056 2.548 3.421 3.95 6.73 3.986.677.008 4.214-2.69 7.86-5.995 3.647-3.304 7.746-6.288 9.109-6.63 5.065-1.271 10.03 1.331 25.474 13.353l5.414 4.215 4.957-1.463c6.934-2.047 9.065-3.313 10.359-6.153 1.237-2.713-.187-5.461-5.305-10.237-1.429-1.334-2.598-2.951-2.598-3.595 0-.644-.865-1.954-1.922-2.91-1.841-1.666-1.995-1.628-3.654.904-1.038 1.585-1.997 2.215-2.394 1.574-.412-.668-1.538-.137-2.991 1.409-2.414 2.57-4.373 2.576-3.388.01.309-.807.177-1.465-.294-1.461-1.382.01-6.271 3.493-7.758 5.527-1.338 1.83-1.467 1.829-5.583-.027-3.862-1.742-4.171-2.155-3.7-4.953.283-1.68.802-3.78 1.154-4.668.792-1.998-2.919-2.886-12.06-2.886-5.305 0-6.513.325-7.404 1.989m-62.534 6.931c.642 1.065.44 1.26-.808.781-.915-.351-1.664-.233-1.664.263s-.9 1.187-2 1.536-2 1.231-2 1.96c0 1.286-2.731 3.02-4.25 2.699-.413-.088-.75.543-.75 1.4 0 .922-.471 1.268-1.152.847-.633-.391-1.656-.08-2.273.691-1.352 1.692-4.434 3.746-6.825 4.549-.962.323-1.75.932-1.75 1.354 0 .422-.788 1.051-1.75 1.399-3.394 1.227-5.753 3.121-6.044 4.851-.345 2.054.17 2.155 3.077.598 1.184-.633 3.292-1.234 4.684-1.335 3.624-.264 7.136-1.896 11.089-5.154 2.121-1.748 2.868-2.074 1.944-.848-1.356 1.798-1.348 1.87.092.748.876-.683 1.96-.908 2.41-.5.45.407.507.198.126-.466-.408-.711.861-2.651 3.09-4.723 2.08-1.934 3.234-3.528 2.563-3.543-.677-.015-.958-.704-.633-1.553.481-1.254.861-1.298 2.133-.25 1.377 1.136 1.401 1.002.219-1.224-1.136-2.14-1.124-2.338.086-1.376 1.09.866 1.873.658 3.414-.904 1.1-1.115 1.418-1.694.706-1.288-.711.407-2.035.139-2.942-.596-1.393-1.129-1.515-1.116-.792.084M.473 188c0 37.675.124 53.087.277 34.25.152-18.838.152-49.663 0-68.5C.597 134.912.473 150.325.473 188M114.5 131c.34.55 1.293 1 2.118 1s1.222-.45.882-1c-.34-.55-1.293-1-2.118-1s-1.222.45-.882 1m-19.926 5.667c-.352.917-.175 2.132.393 2.7.711.711 1.033.19 1.033-1.667 0-3.085-.499-3.447-1.426-1.033m46.542.524c-.064.93.362 1.986.946 2.347s1.461 1.708 1.95 2.994c.671 1.765 1.622 2.316 3.884 2.252 1.647-.047 4.145.668 5.55 1.588 4.256 2.789 2.863.05-2.196-4.316-3.416-2.948-5.361-3.953-6.927-3.577-1.518.364-2.315-.007-2.634-1.228-.412-1.578-.468-1.584-.573-.06m-36.9 1.654c-2.124 1.348-.328 4.321 2.152 3.564 4.752-1.451 5.28-2.212 2.317-3.339-3.313-1.259-2.873-1.237-4.469-.225m90.688 1.77c-1.16 1.398-1.086 1.566.545 1.25 1.037-.201 2.073-.927 2.301-1.615.594-1.784-1.26-1.546-2.846.365M244 144.612c-16.557 8.801-29.877 16.38-30.468 17.336-.733 1.186 16.272-4.245 30.718-9.809l11.75-4.526v-4.307c0-2.368-.338-4.299-.75-4.291-.412.009-5.475 2.527-11.25 5.597M104.5 141c.34.55.816 1 1.059 1s.441-.45.441-1-.477-1-1.059-1-.781.45-.441 1m7.5.212c0 1.452 4.1 2.95 5.314 1.942 1.175-.974 1.748-1.154 3.686-1.154.55 0 1-.419 1-.931s-2.25-.851-5-.752c-2.75.098-5 .501-5 .895M14.5 142c.34.55 1.293 1 2.118 1s1.222-.45.882-1c-.34-.55-1.293-1-2.118-1s-1.222.45-.882 1m161.25 1.641c-2.944 2.103-3.751 3.343-3.754 5.769-.005 4.562-3.404 9.59-6.481 9.59-1.383 0-2.515-.45-2.515-1 0-2.269-1.609-.719-3.21 3.09-1.593 3.793-1.952 4.049-5.265 3.764-3.185-.275-3.736.056-5.29 3.17-1.478 2.961-2.263 3.487-5.299 3.552-4.42.094-5.936.984-5.936 3.483 0 2.319 1.378 2.397 9.5.537 3.3-.755 8.204-1.686 10.897-2.068 2.693-.382 5.618-1.054 6.5-1.493 2.237-1.114 9.865-2.928 21.603-5.135 12.751-2.398 15.5-3.031 15.5-3.568 0-.239-2.986-3.224-6.636-6.633-3.65-3.41-8.712-8.345-11.25-10.968l-4.614-4.768-3.75 2.678m20.25 2.417c-4.904 2.575-6.711 3.938-5.221 3.94 3.092.003 14.446-5.824 13.7-7.032-.328-.531-.683-.939-.788-.905-.105.033-3.566 1.832-7.691 3.997M23.5 145c-.34.55.335 1 1.5 1s1.84-.45 1.5-1c-.34-.55-1.015-1-1.5-1-.485 0-1.16.45-1.5 1m9.25 3.662c.688.278 1.813.278 2.5 0 .688-.277.125-.504-1.25-.504s-1.937.227-1.25.504M16 151c-2.327.745-2.349.808-.309.9 1.205.055 2.469-.35 2.809-.9.34-.55.479-.955.309-.9A2527 2527 0 0 1 16 151m57.074 1.245c-1.018 1.624-1.34 4.914-1.149 11.755.29 10.415 1.719 24.524 1.938 19.143.1-2.453.519-3.211 1.554-2.813.78.299 1.63-.009 1.889-.686.35-.911 4.247-1.162 15.083-.968 9.131.163 14.611-.11 14.611-.727 0-.544 1.237-.759 2.75-.48 1.513.28 4.775.679 7.25.887 2.475.208 3.254.184 1.732-.053-1.534-.24-3.708-1.704-4.876-3.284-1.8-2.435-2.606-2.772-5.505-2.301-4.048.657-7.351-1.763-7.351-5.385 0-2.164-.308-2.307-3.753-1.757-5.166.827-9.247-2.303-9.247-7.09 0-4.061-1.499-5.249-3.892-3.084-3.363 3.043-7.718 1.702-8.907-2.742l-.714-2.67-1.413 2.255m-30.261-.562c.721.289 1.584.253 1.916-.079.332-.332-.258-.568-1.312-.525-1.165.048-1.402.285-.604.604m-18.34 3.273c.325.526 1.252.703 2.059.393 2.067-.793 1.824-1.349-.591-1.349-1.132 0-1.793.43-1.468.956M33 158.218c0 1.077 2.187.955 4-.223 1.149-.747.856-.926-1.25-.767-1.513.115-2.75.56-2.75.99m87.563 1.976c-.819 1.962-2.857 4.858-4.527 6.434-5.708 5.387-2.608 7.426 4.16 2.736 4.279-2.965 4.914-4.448 1.554-3.628-2.095.511-2.047.332.7-2.607 2.759-2.951 2.842-3.266 1.278-4.83-1.565-1.564-1.771-1.441-3.165 1.895m-75.565.352c-1.448.802-1.868 1.392-.998 1.403 1.786.024 4.642-1.64 3.97-2.313-.26-.26-1.597.15-2.972.91M67.43 162.5c-1.139 1.65-3.315 5.171-4.836 7.824-1.813 3.163-3.252 4.637-4.18 4.282-.946-.364-1.441.191-1.495 1.675-.072 1.956-.236 1.869-1.384-.737-.819-1.857-2.554-3.409-4.669-4.174-5.633-2.038-6.335-1.675-3.634 1.88 3.545 4.665 12.005 23.213 13.799 30.25.559 2.195.792 2.43.867.876.056-1.169-.564-4.011-1.377-6.316-2.162-6.127-3.017-16.449-1.638-19.778.923-2.228 1.794-2.782 4.371-2.782 5.299 0 5.666 1.923 6.323 33.126l.587 27.874-2.746 1.921c-1.511 1.056-2.427 1.403-2.036.771.391-.633.175-2.151-.479-3.374-.842-1.572-.87-2.329-.098-2.586.754-.252.785-1.041.1-2.548-.545-1.201-1.596-6.909-2.336-12.684-.739-5.775-1.395-9.882-1.457-9.128-.09 1.106-.403 1.131-1.612.128-.825-.685-1.5-1.776-1.5-2.425 0-.649-2.21-4.081-4.911-7.627-4.996-6.559-14.38-23.315-16.715-29.849-1.894-5.3-1.81-.272.106 6.313.815 2.798 2.896 10.488 4.626 17.088 1.73 6.6 4.171 15.375 5.426 19.5a3560.413 3560.413 0 0 1 5.064 16.852c2.456 8.258 2.935 9.142 4.093 7.559 1.043-1.426 1.055-1.955.061-2.587-.688-.436-.906-.8-.486-.809.421-.008-.527-2.603-2.105-5.765-2.787-5.585-4.736-13.282-3.346-13.218.378.017 2.616 2.83 4.974 6.25 2.359 3.42 5.125 7.343 6.149 8.718 2.557 3.434 3.508 9 1.539 9-1.778 0-1.808.436-.313 4.571 1.087 3.007 1.347 3.148 4.071 2.198 1.6-.558 3.301-2.044 3.78-3.303 1.01-2.656 1.113-52.327.145-69.966l-.658-12-2.07 3M221 170.059c0 .582.45.781 1 .441s1-.816 1-1.059-.45-.441-1-.441-1 .477-1 1.059M243 173c0 .55.45 1 1 1s1-.45 1-1-.45-1-1-1-1 .45-1 1m-118.789 3.849c-.834.529-.231.818 1.706.818 1.647 0 2.763-.375 2.48-.834-.65-1.052-2.514-1.045-4.186.016m18.197 3.651c-1.631 2.49-1.702 2.5-17.273 2.506-8.599.003-17.21.413-19.135.911-1.925.499-5.714 1.21-8.419 1.581-5.719.785-4.554 2.378 1.919 2.623 2.612.099 3.132.294 1.5.562-6.109 1.002-9.451 3.302-7 4.817 2.088 1.29.948 2.431-1.5 1.5-2.784-1.058-3.19-.158-1.421 3.148.861 1.608.709 2.316-.75 3.497-1.307 1.058-1.475 1.628-.587 1.998.866.362.952 1.059.285 2.306-1.207 2.256-.418 3.051 3.033 3.051 2.771 0 4.907-2.785 3.027-3.946-.616-.381-.634-1.156-.05-2.08 1.234-1.951 1.201-2.974-.096-2.974-.582 0-.847.342-.589.761.259.419-.105 1.549-.809 2.511-1.128 1.543-1.427 1.573-2.524.251-1.013-1.221-.939-1.616.398-2.13.955-.366 1.427-1.313 1.127-2.261-.704-2.228 5.971-2.837 6.821-.623.347.904-.006 1.491-.896 1.491-2.101 0-1.825 1.994.281 2.032 1.667.03 1.667.095 0 1.36-2.146 1.629-2.24 2.608-.25 2.608.825 0 1.5.45 1.5 1s-.562 1.007-1.25 1.015c-.833.011-.75.339.25.985 1.287.832 1.251.989-.25 1.11-3.474.278-3.835.409-4.616 1.674-.439.709-1.541.997-2.464.643-1.99-.764-2.223.869-.346 2.427.889.738 1.654.768 2.331.091s.854.04.54 2.183c-.376 2.556-.166 3.075 1.053 2.607.905-.347 2.564.503 4.088 2.093 2.334 2.437 2.474 3.037 1.553 6.675-.557 2.198-1.046 4.447-1.088 4.997-.15 1.984 2.277 9.43 3.275 10.047.69.426.677 1.046-.04 1.909-.769.927-.631 1.635.502 2.575 1.302 1.081 1.846.996 3.262-.508.935-.992 1.138-1.49.45-1.105-.687.385-1.25.515-1.25.288 0-.227-1.085-3.403-2.411-7.059S102.63 233 103.183 233c.552 0 1.24.9 1.527 2 .69 2.636 2.069 2.553 2.47-.148.444-2.978 3.154-4.553 4.95-2.875 1.177 1.099.904 1.789-1.768 4.461-2.472 2.472-3.047 3.759-2.637 5.903.602 3.147 1.935 3.057 4.151-.28 1.5-2.26 1.473-2.307-.915-1.571l-2.461.758 2.395-2.593c1.318-1.426 2.78-2.356 3.25-2.065.47.29.855.037.855-.562 0-1.903 3.007-2.331 4.824-.687 1.98 1.792 6.176 1.186 6.176-.893 0-.725-.439-2.472-.975-3.883-.843-2.217-.707-2.565 1-2.565 1.44 0 1.975-.677 1.975-2.5 0-2.675 1.735-2.964 3.594-.599.799 1.018 1.296 1.087 1.812.25 1.102-1.781 3.393-1.361 4.061.746.411 1.295 1.229 1.734 2.573 1.382 1.084-.283 2.554-.031 3.267.561.714.592 2.399.831 3.745.531 1.778-.395 2.069-.276 1.062.436-.806.569-1.387 2.736-1.387 5.175 0 2.681-.306 3.712-.848 2.856-.628-.99-.848-.818-.848.662 0 4.364 1.615 4.628 3.226.527.876-2.229 1.176-3.794.667-3.48-.508.314-.924-.022-.924-.747 0-2.295 3.951-3.901 9.025-3.67 4.393.201 5.005.518 5.887 3.047 1.359 3.899 2.467 3.544 1.798-.575-.511-3.152-.339-3.429 2.382-3.829 2.585-.379 2.859-.183 2.306 1.648-1.645 5.444.355 5.832 3.536.686 2.531-4.095 3.92-4.659 14.272-5.79 4.417-.483 4.746-.355 5.359 2.084.747 2.979 1.928 3.327 3.254.959.523-.935 1.43-1.324 2.109-.904.858.53.685 1.106-.617 2.058-.994.727-1.482 1.648-1.084 2.047.399.398 1.411.155 2.249-.541 1.284-1.066 1.524-.931 1.524.858 0 1.22.638 2.122 1.5 2.122.825 0 1.5-.675 1.5-1.5s.525-1.5 1.167-1.5c.641 0 .865-.302.496-.67-.368-.369.045-1.761.918-3.094 1.521-2.321 1.499-2.396-.496-1.763-2.763.877-2.677-.945.138-2.916 2.787-1.953 3.777-1.968 3.777-.057 0 .825.436 1.5.969 1.5.532 0 .681-.787.33-1.75-.573-1.571-.416-1.555 1.531.155 2.36 2.072 2.972 5.117.867 4.309-.753-.289-1.83.69-2.552 2.321-1.069 2.415-.996 3.116.507 4.872 1.261 1.472 1.965 1.712 2.498.851.408-.66 1.086-.855 1.508-.434.421.422.193 1.685-.508 2.807-1.117 1.789-1.051 1.993.538 1.663 1.188-.246 1.73-1.136 1.574-2.585-.257-2.383 2.154-3.118 3.145-.959.316.688.305.181-.023-1.125-.445-1.767-.271-2.173.679-1.586.873.54 1.099.326.714-.678-.809-2.109 5.081-4.709 6.278-2.772.46.744 1.165 1.024 1.568.622 1.094-1.095-2.652-3.555-6.598-4.333-5.16-1.017-6.454-2.707-5.084-6.638.951-2.727.859-3.413-.6-4.48-.948-.693-2.505-1.26-3.461-1.26-.955 0-2.358-.621-3.117-1.38-.759-.759-5.249-2.586-9.978-4.06-7.154-2.229-8.699-3.082-9.199-5.075-1.114-4.437-6.551-7.454-15.221-8.446-16.789-1.92-19.037-2.217-24.365-3.22-3.025-.57-6.062-1.492-6.75-2.05-1.933-1.568-1.49-5.57.75-6.769 1.1-.589 2-1.73 2-2.535 0-2.331-2.8-1.699-4.592 1.035m41.163-.929c-1.732 1.733-1.997 3.048-.767 3.808.442.273 1.303-.825 1.913-2.441 1.264-3.349 1.069-3.581-1.146-1.367m63.982-.656a1.116 1.116 0 0 0 .362 1.532c.521.322 1.21.159 1.532-.362a1.116 1.116 0 0 0-.362-1.532 1.116 1.116 0 0 0-1.532.362m-36.053.798c-1.1.265-2.42.88-2.933 1.367-.512.487.561.457 2.386-.067 5.154-1.478 5.589-2.513.547-1.3m43.579 2.87c.048 1.165.285 1.402.604.605.289-.722.253-1.585-.079-1.917-.332-.332-.568.258-.525 1.312M190.158 184c0 1.375.227 1.938.504 1.25.278-.687.278-1.812 0-2.5-.277-.687-.504-.125-.504 1.25m59.099 1.588c1.902 2.194 2.296 2.326 2.591.87.357-1.759-1.371-3.415-3.591-3.443-.728-.009-.313 1.059 1 2.573m-208.245.927c.051 4.281 6.304 19.682 9.416 23.193.59.665 2.645 3.253 4.567 5.751 6.304 8.19 8.526 4.542 2.413-3.962-5.345-7.438-11.863-17.474-14.276-21.982-1.172-2.192-2.127-3.542-2.12-3M236 188.451c0 1.197.547 1.51 1.895 1.082 1.989-.631 5.514 1.995 4.62 3.443-.277.448.273 1.112 1.222 1.476 1.545.593 2.921-.649 2.088-1.884-.179-.265.575-1.2 1.675-2.077 1.971-1.572 1.968-1.586-.25-.975-1.238.34-2.25.235-2.25-.234 0-.47-.787-.921-1.75-1.003-.963-.083-2.988-.457-4.5-.831-2.181-.54-2.75-.333-2.75 1.003m-30.541.616c-.363.586-.445 1.281-.183 1.543s.743-.218 1.069-1.067c.676-1.762.1-2.072-.886-.476m27.354.616c.721.289 1.584.253 1.916-.079.332-.332-.258-.568-1.312-.525-1.165.048-1.402.285-.604.604m22.266 2.9c.048 1.165.285 1.402.604.605.289-.722.253-1.585-.079-1.917-.332-.332-.568.258-.525 1.312M248 196.417c0 .87.713 1.583 1.583 1.583 1.766 0 1.459-2.153-.395-2.771-.654-.218-1.188.317-1.188 1.188m-164 2.465c0 .55.45 1.278 1 1.618.55.34 1 .168 1-.382s-.45-1.278-1-1.618c-.55-.34-1-.168-1 .382m4 1.177c0 .582.45.781 1 .441s1-.816 1-1.059-.45-.441-1-.441-1 .477-1 1.059m139.9 1.316c-1.517 2.028-1.437 2.199 1.755 3.749 2.715 1.317 3.345 1.364 3.345.25 0-.756-.48-1.374-1.067-1.374-.59 0-.801-.842-.471-1.882.868-2.732-1.677-3.263-3.562-.743m-142.317 1.491c-.431.697-.513 1.537-.183 1.867.895.895 1.871-.421 1.387-1.871-.338-1.016-.574-1.016-1.204.004m138.583 3.268c-1.191.441-2.166 1.314-2.166 1.941 0 .693.686.857 1.75.419a40.476 40.476 0 0 1 3.5-1.224c.963-.277 1.75-.826 1.75-1.22 0-.947-2.148-.909-4.834.084m30.472 1.366c.317.825.753 1.5.969 1.5.216 0 .393-.675.393-1.5s-.436-1.5-.969-1.5c-.532 0-.709.675-.393 1.5M239 209c0 .55.45 1 1 1s1-.45 1-1-.45-1-1-1-1 .45-1 1m10.424 2.084c-1.881 2.078-1.879 2.08.845.839 1.502-.684 2.731-1.622 2.731-2.084 0-1.472-1.631-.905-3.576 1.245m-24.851.437c-1.06.802-1.598 1.787-1.196 2.19.403.402 1.095.143 1.539-.575.444-.719 1.196-1.235 1.671-1.146.475.088 1.024-.324 1.221-.915.497-1.489-.939-1.291-3.235.446M234 213.5c-1.584 1.908-.098 1.889 2.441-.032 1.554-1.175 1.628-1.468.373-1.468-.863 0-2.129.675-2.814 1.5m4.54.847c-1.398 1.023-1.538 1.536-.58 2.128 1.173.725 2.988-.91 3.025-2.725.021-1.037-.326-.952-2.445.597M226 215.941c0 .518.45 1.219 1 1.559.55.34 1-.084 1-.941s-.45-1.559-1-1.559-1 .423-1 .941m22.573-.181c-.298.299.642 1.158 2.091 1.909 2.703 1.403 3.987 1.193 2.952-.482-.717-1.159-4.297-2.172-5.043-1.427M229 217c0 .55.45 1 1 1s1-.45 1-1-.45-1-1-1-1 .45-1 1m12.564 1.293c.376.986.935 1.541 1.243 1.233.308-.307.001-1.114-.683-1.793-.988-.98-1.102-.865-.56.56M220.5 220c-.34.55-.141 1 .441 1s1.059-.45 1.059-1-.198-1-.441-1-.719.45-1.059 1m-139.18 1.489c-2.146 1.503-5.748 9.684-6.701 15.217-.449 2.609-.264 3.095.995 2.612.985-.378 1.352-1.342 1.01-2.65-.523-1.996 3.162-10.22 6.238-13.924 1.936-2.331 1.037-3.062-1.542-1.255m146.493-.806c.721.289 1.584.253 1.916-.079.332-.332-.258-.568-1.312-.525-1.165.048-1.402.285-.604.604M244 221.7c0 1.256.293 1.407 1.122.578.617-.617 1.742-.884 2.5-.593.758.291 1.378.031 1.378-.578S247.875 220 246.5 220c-1.686 0-2.5.553-2.5 1.7m-63.378 8.55c.416 1.238.821 3.318.899 4.624.132 2.204 6.446 10.492 7.324 9.615.656-.656-7.093-16.489-8.07-16.489-.501 0-.57 1.011-.153 2.25m-7.554 6.7c-.052 2.63.21 3.172 1.099 2.283.864-.864.881-1.763.068-3.45-1.033-2.144-1.104-2.073-1.167 1.167m28.189 1.01c-.674 1.079-.959 2.654-.634 3.5.4 1.044-.008 1.545-1.266 1.555-1.565.013-1.621.168-.357.985 2.106 1.361 4.118 1.233 3.925-.25-.314-2.42.226-5.267.751-3.958.4.997.841 1.024 1.932.118 1.205-.999 1.153-1.371-.347-2.51-2.329-1.768-2.571-1.734-4.004.56M188 237.378c0 .207.685.946 1.523 1.641 1.273 1.057 1.42.995.893-.378-.538-1.401-2.416-2.384-2.416-1.263m-24.443 3.197c.66 2.827 2.907 5.425 4.691 5.425 1.016 0-2.15-5.654-4.061-7.252-1.054-.881-1.178-.522-.63 1.827M220 240c0 1.1.408 2 .906 2 .499 0 .671-.9.384-2-.288-1.1-.696-2-.907-2-.21 0-.383.9-.383 2m-130 .031c0 .568.647 1.28 1.437 1.583a1.54 1.54 0 0 1 .889 1.98c-.383.996-.061 1.241 1.063.81 2.118-.812 2.032-1.599-.4-3.682-2.316-1.983-2.989-2.138-2.989-.691m77 .469c0 .825.45 1.5 1 1.5s1-.675 1-1.5-.45-1.5-1-1.5-1 .675-1 1.5m3 0c0 .825.661 1.5 1.469 1.5.894 0 1.243-.586.893-1.5-.317-.825-.978-1.5-1.469-1.5-.491 0-.893.675-.893 1.5m7.5-.5c.34.55 1.041 1 1.559 1s.941-.45.941-1-.702-1-1.559-1-1.281.45-.941 1m-112.041 2.067c-.363.586-.419 1.306-.126 1.6.717.716 2.667-.546 2.667-1.726 0-1.278-1.726-1.193-2.541.126m9.208-.4c-.367.366-.621 2.054-.565 3.75l.103 3.083.821-3.493c.855-3.64.766-4.466-.359-3.34m-18.16 3.437c1.306 4.26 2.322 5.551 2.15 2.735-.086-1.42-.771-3.155-1.521-3.856-1.135-1.061-1.24-.873-.629 1.121m135.508.146c-.008 1.512.435 2.75.985 2.75 1.264 0 1.264-2.043 0-4-.755-1.169-.973-.893-.985 1.25m-96.765-.219c-1.237.498-2.25 1.594-2.25 2.437 0 2.021 1.619 1.966 2.405-.081.383-.997 1.35-1.423 2.532-1.114 1.339.351 1.754.085 1.381-.886-.605-1.578-.951-1.609-4.068-.356m127.75-.09c0 .518.445 1.216.989 1.552.566.35.734-.051.393-.941-.665-1.732-1.382-2.049-1.382-.611m-157.13 1.716c-.702.846-1.401 2.352-1.553 3.346-.245 1.606.057 1.682 2.704.683 3.122-1.179 4.018-4.073 1.552-5.02-.785-.301-2.001.145-2.703.991M89.5 246c.34.55.816 1 1.059 1s.441-.45.441-1-.477-1-1.059-1-.781.45-.441 1m115.5 1.059c0 .582.45.781 1 .441s1-.816 1-1.059-.45-.441-1-.441-1 .477-1 1.059m-51.541 1.008c-.363.586-.445 1.281-.183 1.543s.743-.218 1.069-1.067c.676-1.762.1-2.072-.886-.476M89.5 249c.34.55 1.068 1 1.618 1s.722-.45.382-1c-.34-.55-1.068-1-1.618-1s-.722.45-.382 1m73.083 1.866c-.431.697-.513 1.537-.183 1.867.895.895 1.871-.421 1.387-1.871-.338-1.016-.574-1.016-1.204.004m64.289.884c-1.269 1.619-1.222 1.64.628.283 1.1-.807 2.188-1.594 2.417-1.75.229-.156-.054-.283-.628-.283s-1.662.787-2.417 1.75M102 252c-.901.582-1.025.975-.309.985.655.008 1.469-.435 1.809-.985.767-1.242.421-1.242-1.5 0m66-.107c0 .491.739 1.176 1.641 1.523 1.373.527 1.435.38.378-.893-1.44-1.735-2.019-1.916-2.019-.63m-14 1.166c0 .582.45.781 1 .441s1-.816 1-1.059-.45-.441-1-.441-1 .477-1 1.059m-75.187 2.624c.721.289 1.584.253 1.916-.079.332-.332-.258-.568-1.312-.525-1.165.048-1.402.285-.604.604"/><path fill="#1976D2" fill-opacity=".478" fill-rule="evenodd" d="M4.232 2c.687 1.1 1.612 2 2.056 2 .444 0 1.904 1.183 3.244 2.629l2.437 2.629.839-2.268C13.988 3.8 10.356 0 6.127 0 3.233 0 3.083.159 4.232 2m10.467-.044c.298 1.141.918 2.308 1.378 2.592.46.284.582 1.177.272 1.984-.309.807-.127 1.468.405 1.468 2.08 0 3.82 28.936 1.746 29.037-.55.026-1.45-2.935-2-6.581-.568-3.768-1.381-6.268-1.883-5.793-.508.482-.598-.861-.213-3.163.498-2.97.395-3.614-.399-2.5-.682.957-.836 4.394-.425 9.5.354 4.4.337 7.706-.038 7.347-.375-.36-3.036-5.76-5.912-12C4.753 17.606 1.869 11.6 1.222 10.5.307 8.944.096 16.157.273 42.963L.5 77.426l3.25.932C5.537 78.87 7 79.674 7 80.145c0 .47 1.634.855 3.632.855C14.217 81 21 84.314 21 86.065c0 .496 2.587.701 5.75.457 3.163-.245 6.442-.462 7.288-.484 1.37-.034 1.405-1.652.313-14.788-2.106-25.352-3.863-33.659-10.275-48.583-1.142-2.658-2.047-5.808-2.013-7 .063-2.127.081-2.124.992.147.51 1.273 1.351 2.053 1.867 1.734.517-.319 1.222-.123 1.568.436.345.559.076 1.016-.598 1.016-.674 0-.928.297-.565.661.363.363 1.513-.111 2.555-1.054 1.82-1.647 2.076-1.467 6.502 4.589 2.534 3.467 7.531 12.222 11.105 19.455 6.322 12.795 6.472 13.281 5.576 18-.507 2.667-1.391 6.083-1.965 7.59-.574 1.508-.755 3.494-.402 4.414.407 1.062.248 1.429-.437 1.006-.67-.414-2.02 2.134-3.563 6.724l-2.485 7.391 2.546 1.16c1.4.638 2.874.801 3.275.362 1.411-1.542 5.944-18.676 7.069-26.722 1.019-7.284.925-8.915-.904-15.584-1.173-4.278-1.702-8.058-1.242-8.88 1.165-2.082 2.877 1.526 4.61 9.718l1.412 6.67-.404-5.622c-.47-6.539-2.877-11.714-8.88-19.091-2.367-2.908-6.831-9.112-9.92-13.787C33.849 7.03 26.536-.87 25.303.364c-.404.404-.037 3.412.816 6.685.853 3.273 1.246 5.951.873 5.951-.372 0-1.771-2.792-3.108-6.204C21.583.925 21.256.572 17.804.236c-3.273-.319-3.592-.142-3.105 1.72M169.5 1.645c-4.42 3.496-14.344 7.348-21.5 8.344-4.125.575-14.25 2.359-22.5 3.966l-26 5.067c-14.807 2.887-31.603 5.074-33.75 4.396-1.997-.631-2.166-.064-.763 2.558.645 1.204 1.685 1.661 3 1.317C69.642 26.86 70 27.253 70 29.5c0 2.284-.345 2.643-2.099 2.184-1.765-.461-2.006-.201-1.514 1.634.322 1.2.592 2.49.599 2.866.008.376 1.251.826 2.764 1 3.333.383 4.731 4.816 1.52 4.816-1.029 0-2.41-.54-3.07-1.2-.933-.933-1.2-.363-1.2 2.566 0 4.557 1.814 8.553 3.007 6.623C71.15 48.139 74 49.573 74 52c0 2.841-2.963 3.817-4.306 1.418-.989-1.768-1.099-1.729-1.699.596C67.19 57.139 67.933 65 69.034 65c.453 0 1.475-.652 2.273-1.449 1.894-1.895 4.762.064 4.319 2.949C75.25 68.949 71 69.931 71 67.57c0-.864-.675-1.57-1.5-1.57-.933 0-1.5.944-1.5 2.5 0 1.375.459 2.5 1.019 2.5.561 0 .814 1.012.563 2.25a757.312 757.312 0 0 1-1.038 5c-.791 3.738.448 3.601 12.211-1.358l9.745-4.107 7 1.105c3.85.608 7.9.909 9 .668 1.1-.241 3.208-.691 4.683-1 2.218-.465 2.605-.996 2.231-3.06-.512-2.822 1.554-3.446 3.529-1.067 1.579 1.902 9.685 3.569 17.36 3.569 5.049 0 7.547-.651 13.419-3.5 7.855-3.811 10.308-4.097 19.923-2.325 13.204 2.433 25.545-2.393 40.441-15.816 6.149-5.54 11.997-9.762 16.862-12.171 6.766-3.35 8.186-3.684 15.5-3.643 4.429.025 9.74.383 11.802.795l3.75.751v-10.92l-7.596-.712c-16.802-1.575-23.94 1.008-39.704 14.363-22.669 19.207-29.647 22.158-47.381 20.036l-10.181-1.218-7.223 3.33c-6.575 3.03-7.331 3.181-8.429 1.679-.664-.907-1.857-1.649-2.652-1.649-.795 0-2.983-1.135-4.863-2.521-1.88-1.387-4.006-2.296-4.725-2.02-.728.279-1.795-.57-2.409-1.918-.894-1.961-.774-2.746.632-4.153 1.642-1.642 1.903-1.642 4.933-.011 2.639 1.421 3.977 1.543 7.648.697 2.448-.564 8.95-1.044 14.45-1.067 11.123-.046 19.293-1.814 31.986-6.922 11.89-4.785 14.141-6.36 24.514-17.166l9.5-9.895 6.569-.911c3.743-.519 8.474-.543 11-.055 2.437.47 6.93.874 9.984.898 4.67.037 6.22-.447 9.75-3.043 4.032-2.965 4.197-3.298 4.197-8.5 0-6.166-1.195-6.835-6.045-3.381-1.57 1.118-5.358 3.179-8.418 4.58-5.208 2.384-6.191 2.502-15.418 1.848-9.551-.677-10-.614-14.549 2.052-2.662 1.56-7.088 5.75-10.221 9.678-8.246 10.333-16.317 15.64-29.957 19.696-3.909 1.163-8.634 2.12-10.5 2.128-4.214.017-7.892.96-7.892 2.023 0 .442 1.463 1.132 3.25 1.534 1.787.401 2.707.918 2.043 1.148-.663.23-3.962-.287-7.33-1.15-3.369-.863-9.513-1.569-13.655-1.569h-7.531l.703-3.748c.387-2.061 1.148-4.022 1.691-4.358.543-.335 4.489-.88 8.77-1.21 10.257-.791 21.872-3.962 30.766-8.399 9.762-4.871 20.708-13.184 21.113-16.035.19-1.343 1.016-2.25 2.05-2.25.951 0 2.184-.454 2.738-1.008.555-.555 7.507-2.303 15.45-3.885L227.5.231 214.441.115c-12.221-.108-13.599.082-21.5 2.951-5.076 1.844-9.836 4.358-11.941 6.307-9.253 8.566-26.934 17.057-39 18.729-13.198 1.829-12.457 1.986-12.801-2.717-.288-3.94-.161-4.142 3-4.768 4.859-.961 30.892-10.509 33.801-12.396 1.375-.893 5.425-3.093 9-4.89l6.5-3.266-5-.001c-3.05 0-5.78.616-7 1.581m-149.957.286c-.317.512-.118 1.213.441 1.559.559.345 1.016-.074 1.016-.931 0-1.757-.6-2.015-1.457-.628m41.17 11.078c.305 1.167-.036 3.227-.759 4.577-1.009 1.886-1.04 2.728-.134 3.634.649.649 1.221 2.327 1.27 3.73.08 2.264.198 2.176 1.051-.787 1.228-4.265.716-12.389-.812-12.892-.753-.248-.973.373-.616 1.738m-48.634 4.574c.048 1.165.285 1.402.604.605.289-.722.253-1.585-.079-1.917-.332-.332-.568.258-.525 1.312m107.145 1.593c-1.635 1.635.293 3.763 2.813 3.104 2.358-.616 2.587-2.826.381-3.673-2.012-.772-1.818-.807-3.194.569m-15.257 1.363c-1.861 2.243.448 5.295 3.556 4.701 1.755-.335 2.413-.965 2.035-1.949-.307-.8-.558-1.815-.558-2.256 0-1.465-3.909-1.85-5.033-.496m-14.295 3.608c-.683 2.61 1.758 4.815 4.527 4.091 1.368-.358 1.685-1.046 1.205-2.612-.787-2.565-.465-2.243-3.03-3.03-1.643-.504-2.257-.152-2.702 1.551m22.685.652c-1.551 2.485.535 5.303 3.376 4.561 3.229-.845 3.624-4.274.623-5.415-3.088-1.174-2.677-1.262-3.999.854m-14.149 3.24c-1.051 1.682-1.018 2.294.188 3.5 1.8 1.8 5.604 1.925 5.604.184 0-1.513-2.807-5.723-3.816-5.723-.387 0-1.276.917-1.976 2.039m-21.02.024c.24.721 1.028 1.509 1.75 1.75.75.25 1.125-.125.875-.875-.241-.722-1.029-1.51-1.75-1.75-.75-.25-1.125.125-.875.875m44.471 1.384c-.871 2.27.37 4.756 2.052 4.11.799-.306 1.897-.557 2.44-.557.544 0 .844-1.012.669-2.25-.381-2.676-4.259-3.655-5.161-1.303M85 30.816c0 2.404 3.867 3.694 4.685 1.563.665-1.733.505-1.918-2.435-2.822-1.801-.554-2.25-.302-2.25 1.259m-13.139.852c-1.072 1.291-.959 1.779.677 2.937 1.079.764 2.929 2.294 4.111 3.4 2.622 2.453 5.588 1.658 5.153-1.382-.249-1.742-.899-2.076-3.624-1.859-2.858.226-3.237-.001-2.72-1.632.782-2.463-1.872-3.543-3.597-1.464m34.359 1.352c-1.061 1.698-.973 2.328.548 3.961 2.564 2.753 6.388 1.674 5.939-1.676-.569-4.25-4.414-5.604-6.487-2.285m-12.581 1.675c-.352.351-.639 1.463-.639 2.472 0 1.271.74 1.833 2.412 1.833 1.649 0 2.336-.51 2.174-1.612-.267-1.821-2.974-3.667-3.947-2.693m22.105 3.041c-2.466 2.734-.206 4.769 5.506 4.956 4.095.134 4.75-.114 4.75-1.793 0-1.105-.975-2.313-2.25-2.79-5.543-2.074-6.434-2.115-8.006-.373m-31.172 1.587c-1.576 1.153-1.636 1.602-.462 3.481 2.496 3.997 5.89 3.903 5.89-.163C90 40.539 88.354 38 86.991 38c-.335 0-1.423.596-2.419 1.323m17.048 1.224c-.912 2.378.436 4.453 2.893 4.453 1.722 0 2.182-.452 1.829-1.8-.696-2.663-4.004-4.522-4.722-2.653m-28.108 1.415c-.622 1.961.922 6.052 2.273 6.023 2.918-.063 3.894-4.744 1.387-6.65-2.305-1.753-2.939-1.644-3.66.627m18.993 2.609c-1.279.966-1.612 1.763-.927 2.218.587.391 1.362 1.509 1.722 2.484.558 1.51.954 1.585 2.677.509 2.273-1.419 2.621-3.784.823-5.582-1.508-1.508-1.847-1.479-4.295.371m18.69 1.98c-1.74 1.976.613 4.449 4.234 4.449 2.076 0 2.571-.481 2.571-2.5 0-1.491-.572-2.5-1.418-2.5-.78 0-2.018-.209-2.75-.466-.733-.256-1.919.202-2.637 1.017m138.002.008c-13.28 3.574-26.529 10.481-37.288 19.44-3.525 2.935-9.334 6.723-12.909 8.419-7.05 3.343-11.652 3.728-25.524 2.136-6.866-.788-7.195-.72-14.5 3.001-7.12 3.626-8.144 3.855-21.476 4.791-17.07 1.199-25.211 1.244-32.765.182-4.828-.679-6.077-.528-7.687.929-1.057.956-2.406 1.44-2.998 1.074-.592-.366-3.433.202-6.313 1.263-2.88 1.06-8.513 2.717-12.518 3.682-6.501 1.567-7.212 1.97-6.643 3.764.464 1.462.294 1.798-.623 1.231-.838-.518-1.012-.376-.518.423.576.933 1.08.923 2.243-.042 1.236-1.025 1.44-.957 1.161.386-.186.897.03 1.548.481 1.446 1.694-.38 2.784 3.25 1.667 5.553-1.054 2.175-1.036 2.187.463.315.894-1.116 1.296-2.778.941-3.895-.538-1.694-.422-1.766.889-.553 1.106 1.025 1.243 1.893.514 3.267-.747 1.407-.689 1.682.236 1.11.801-.495 1.054-.276.725.63-.278.764-1.045 1.265-1.704 1.114-.66-.151-.941.144-.624.656.962 1.558 4.144.123 4.144-1.868 0-1.026-.412-1.612-.915-1.3-.504.311-.709-.06-.457-.824.252-.764 1.472-1.538 2.711-1.719 2.079-.305 2.119-.429.516-1.601-1.511-1.104-1.053-1.361 3.517-1.967 2.89-.383 6.958-1.379 9.04-2.212 3.815-1.526 8.489-1.861 19.517-1.396 3.642.153 9.158-.569 14.036-1.837 7.41-1.928 8.414-1.976 12.901-.626 6.211 1.869 14.38.688 22.368-3.234 5.388-2.646 6.432-2.798 19.373-2.808 7.522-.006 13.597.059 13.5.144-.098.085-2.878 1.325-6.178 2.756-4.104 1.779-5.052 2.47-3 2.188 1.65-.227 3-.483 3-.569 0-.086 1.012-.345 2.25-.576 1.24-.231 2.25.082 2.25.697 0 .767.466.729 1.491-.121.833-.692 2.926-1.027 4.744-.76 1.79.263 4.519.037 6.064-.502 2.295-.8 3.088-.638 4.33.887.835 1.027 1.184 1.192.773.367-.506-1.017-.054-.894 1.403.384 1.181 1.036 1.86 2.35 1.507 2.92-.392.635.004.789 1.024.397 2.677-1.027 1.913.119-1.127 1.691-2.604 1.346-2.924 1.284-4.75-.928-1.078-1.304-2.381-2.392-2.896-2.418-.515-.025.343 1.291 1.909 2.924 2.396 2.501 2.591 3.069 1.235 3.589-.886.34-2.195.32-2.909-.045-.714-.364-.424.046.643.912 1.817 1.473 1.825 1.574.128 1.574-1.475 0-1.588.272-.605 1.456 1.862 2.244.217 3.732-3.565 3.222-2.141-.289-3.405-.036-3.414.682-.011.782-.246.807-.75.079-1.17-1.691-5.328-1.257-5.037.525.386 2.353-1.069 4.011-2.98 3.398-1.459-.468-1.492-.388-.218.528 1.121.807 1.166 1.083.179 1.095-.992.011-.93.407.25 1.586 1.806 1.806 2.052 3.429.52 3.429-.578 0 .026 1.463 1.343 3.25 3.444 4.677 10.708 18.381 10.708 20.203 0 .851.45 1.547 1 1.547s1 .608 1 1.352c0 .744-3.191 2.823-7.09 4.62l-7.091 3.268 4.341 4.457c6.101 6.265 6.893 6.558 11.313 4.189l3.774-2.022-.45 3.068c-.248 1.687-.274 3.068-.057 3.068.216 0 1.826-1.08 3.577-2.4 1.751-1.319 11.958-7.181 22.683-13.025l19.5-10.627.302 5.613c.262 4.85-.022 5.913-2.089 7.829-1.316 1.219-3.027 2.046-3.802 1.837-1.202-.323-1.205-.235-.015.596.826.577 1.121 1.691.722 2.73-.639 1.664-.74 1.662-1.985-.04-1.26-1.723-1.339-1.723-2.006.017-.389 1.015-.194 2.12.446 2.515.841.52.82.903-.078 1.458-1.876 1.159-3.584-2.349-3.062-6.288.131-.987-.7-.921-3.58.282-5.034 2.103-5.391 2.642-1.28 1.933l3.427-.591-2.5 1.538c-4.592 2.823-7.119 3.631-9.497 3.034-2.807-.704-6.76.364-5.986 1.617.301.486-.593 1.631-1.985 2.543-1.393.912-2.532 2.109-2.532 2.659 0 .55 1.214.204 2.699-.768 1.64-1.075 2.836-1.356 3.049-.717.227.679 1.419.519 3.364-.451 1.657-.826 3.261-1.254 3.564-.951.713.712-3.562 7.657-4.712 7.657-.48 0-1.998 1.125-3.373 2.5-1.375 1.375-3.248 2.5-4.162 2.5-1.233 0-1.539.644-1.185 2.494.691 3.617-1.709 5.301-4.263 2.989-1.734-1.569-1.981-1.594-1.981-.195 0 .879 1.012 2.312 2.25 3.183 1.46 1.029 1.864 1.839 1.15 2.307-.605.397-1.301 1.348-1.547 2.113-.616 1.917-6.579 2.452-11.103.996-3.941-1.268-4.765-2.56-2.25-3.525.825-.317 1.5-1.442 1.5-2.5 0-1.059.675-2.184 1.5-2.5 2.023-.777 1.896-2.121-.25-2.634-1.567-.375-1.541-.501.25-1.209 1.1-.435 3.351-2.192 5.001-3.905 1.651-1.713 4.126-3.878 5.5-4.812 1.99-1.351 2.143-1.708.749-1.75-.963-.028-1.75-.797-1.75-1.707 0-1.54-.127-1.54-1.829 0-2.357 2.134-3.908 2.101-4.482-.095-.411-1.574-.469-1.58-.573-.061-.142 2.062-9.265 3.863-9.901 1.955-.21-.629-1.074-1.144-1.921-1.144-1.197 0-1.284.307-.391 1.383.889 1.071.785 1.523-.459 2-2.428.932-2.713.774-2.049-1.133.502-1.441.342-1.404-.906.21-1.925 2.488-1.477 3.807 1.585 4.663 2.416.675 2.416.678.132.777-1.602.07-2.205.627-2 1.85.205 1.222-.262 1.655-1.548 1.435-2.064-.353-4.578 2.399-4.626 5.065-.039 2.126-3.032 2.373-3.032.25 0-.825-.675-1.5-1.5-1.5s-1.5.45-1.5 1-.765 1-1.7 1c-1.322 0-1.433-.267-.5-1.2.66-.66 1.2-1.737 1.2-2.394 0-1.232 5.336-7.406 6.401-7.406.33 0 .599.702.599 1.559s.457 1.276 1.016.931c.559-.346.716-1.115.348-1.711-.368-.595.187-1.719 1.233-2.497 1.75-1.301 1.663-1.36-1.097-.748-7.803 1.733-10.5 2.613-10.5 3.425 0 .485-1.41 1.192-3.133 1.57-2.305.506-2.768.92-1.75 1.564 1.021.647.729.919-1.117 1.04-1.375.09-3.175.255-4 .367-.825.112-2.031.271-2.68.352-.65.081-1.376 1.161-1.614 2.398-.426 2.209-.436 2.211-.57.086-.115-1.835-.538-2.056-2.788-1.454-1.459.39-3.026 1.719-3.483 2.953-.666 1.802-.406 2.399 1.324 3.039 1.667.617 1.846.987.791 1.638-.843.521-1.517.378-1.768-.377-.313-.939-.733-.948-1.828-.039-1.116.927-1.847.795-3.403-.613-1.13-1.022-1.981-1.297-1.981-.638 0 .635-1.012 1.201-2.25 1.258-5.107.232 9.372 3.738 17.75 4.298 8.573.572 20.7 1.503 25 1.919 1.1.106 2.609.583 3.354 1.06 2.238 1.433 14.146 2.07 14.146.757 0-2.18 1.57-1.116 2.675 1.814 1.657 4.388 11.977 9.887 15.801 8.42 1.857-.713 2.607-4.198.984-4.568-1.095-.25-1.09-.622.025-2.132 1.098-1.487 1.741-1.621 3.433-.715 1.705.912 2.082.825 2.082-.48 0-.877-.399-1.348-.886-1.046-.488.301-1.121-.347-1.407-1.441-.35-1.34-1.366-1.989-3.113-1.989-3.578 0-3.499-3.962.156-7.876 1.512-1.62 4.013-4.704 5.556-6.854 1.674-2.333 4.281-4.442 6.463-5.231 2.012-.728 4.304-1.969 5.093-2.758.79-.79 2.24-1.226 3.222-.969.983.257 2.024-.151 2.314-.906.289-.755 1.215-1.108 2.056-.785.902.346 1.788-.088 2.161-1.06 1.015-2.646-.445-3.093-3.741-1.146-2.972 1.756-3.053 1.754-2.705-.052.197-1.025 1.027-1.863 1.845-1.863.817 0 1.787-.728 2.155-1.618.702-1.698 5.831-3.232 5.831-1.743 0 .473-.45.861-1 .861s-1 .477-1 1.059.45.781 1 .441c.608-.376.999 1.073.998 3.691-.002 4.126-.137 4.319-3.175 4.532-1.744.123-3.518.783-3.94 1.467-1.104 1.785 1.067 3.96 3.258 3.265 2.48-.787 2.379 1.204-.141 2.777-2.037 1.272-2.793 4.768-1.031 4.768.532 0 .731-.617.442-1.371-.694-1.809 2.683-3.084 3.744-1.413.448.706.807 1.959.798 2.784-.013 1.138-.371 1.032-1.485-.441-.807-1.068-1.468-1.442-1.468-.832s-.273 1.821-.607 2.691c-.419 1.093-.032 1.582 1.25 1.583 1.546 0 1.857.788 1.857 4.7 0 4.159-.287 4.78-2.5 5.399-1.375.386-1.825.776-1 .868.979.109.692.556-.826 1.286-1.837.884-2.516.817-3.234-.317-1.46-2.307-1.155-2.647 2.967-3.306 3.289-.526 3.824-.942 3.384-2.628-.289-1.102-.925-2.003-1.414-2.003-.49 0-1.868-1.125-3.064-2.5-2.26-2.599-5.289-3.429-4.563-1.25.229.687.919 1.25 1.533 1.25 2.295 0 3.374 2.125 1.759 3.465-.848.704-1.542 1.862-1.542 2.574 0 1.865-2.007 2.28-5.888 1.218-2.424-.664-3.599-.586-4.129.271-.556.899-.862.858-1.225-.165-.601-1.693-1.292-1.07-2.245 2.025-.666 2.162-.489 2.341 1.876 1.888 2.907-.555 3.373.346 1.139 2.201-1.293 1.073-1.284 1.41.076 2.77.851.851 2.858 1.594 4.458 1.65 4.014.142 4.442 2.192.895 4.288-3.262 1.926-3.827 3.315-1.35 3.315 1.079 0 1.4.539.977 1.641-.524 1.367-.377 1.432.88.389.831-.69 2.279-.959 3.217-.599 1.605.616 1.606.543.013-1.217-2.296-2.537-2.181-2.911 1.477-4.803 2.719-1.406 2.933-1.773 1.5-2.575-.919-.514-1.671-1.28-1.671-1.702 0-1.114 8.019-5.448 8.743-4.725.899.9-2.928 3.522-5.193 3.559-1.517.025-1.683.299-.75 1.232.896.896 1.488.912 2.336.064.847-.847 1.482-.789 2.5.229 1.559 1.559 1.901 7.957.375 7.014-.552-.341-.742.03-.431.84.306.798.074 1.749-.515 2.113-.732.453-.753 1.254-.065 2.54.672 1.255.673 2.084.003 2.498-.552.341-1.003.3-1.003-.092s-.866.286-1.924 1.507c-1.059 1.22-2.184 2.189-2.5 2.153-2.389-.273-2.684.182-2.069 3.184.65 3.169.627 3.196-.924 1.076-1.23-1.682-2.354-2.08-4.967-1.755-2.98.369-3.524.066-4.618-2.576-1.418-3.424-2.998-3.948-2.998-.995 0 1.1.45 2 1 2s1 .469 1 1.042c0 .573.929 2.035 2.065 3.25 1.602 1.713 1.745 2.274.639 2.504-.784.164-1.969 1.49-2.633 2.948-.789 1.732-1.46 2.244-1.934 1.478-.53-.858-1.849-.619-4.89.886l-4.164 2.06 1.607 4.015c1.365 3.411 1.396 4.149.208 4.9-1.975 1.249-3.348.595-3.698-1.763-.231-1.559-.863-1.916-2.75-1.555-2.054.393-2.45.077-2.45-1.953 0-2.175-.407-2.411-4.005-2.32-2.203.055-3.963.407-3.912.781.336 2.472 1.272 4.727 1.962 4.727.447 0 1.596.783 2.553 1.741 1.193 1.193 1.866 1.366 2.138.55.279-.835 1.124-.914 2.831-.266 1.338.509 2.44.599 2.448.2.028-1.288 1.954 2.23 1.97 3.596.011.987-.383.924-1.556-.25-1.946-1.946-4.429-2.046-4.429-.178 0 1.644-2.426 2.764-4.371 2.018-.754-.289-1.626.138-1.937.949-.311.811.037 1.706.774 1.989.737.282 11.171.432 23.187.332l21.847-.181-.037-89.81c-.042-99.418.48-92.26-6.638-91.125-4.649.741-8.502-1.044-6.767-3.135.653-.786 1.78-1.43 2.505-1.43.726 0 1.608-.468 1.962-1.04.417-.675-.266-.812-1.941-.392-1.421.357-2.584.364-2.584.016 0-1.008 5.18-2.753 9-3.032 2.442-.178 3.606-.798 3.851-2.05.274-1.398-.057-1.627-1.5-1.04-1.018.415-4.551 1.665-7.851 2.779-6.892 2.326-12.073 5.837-13.02 8.823-.361 1.136-1.629 2.458-2.818 2.937-2.049.827-2.057.877-.162.972 1.334.067.538.785-2.394 2.159-3.194 1.496-4.969 1.806-6.5 1.134-1.158-.508-4.925-.835-8.371-.728l-6.266.196 9.158-5.922c5.037-3.258 11.231-6.972 13.765-8.254C235.756 63.591 251.558 58 254.08 58c1.696 0 1.92-.757 1.92-6.5 0-3.575-.338-6.47-.75-6.434-.412.036-3.136.708-6.053 1.493M16.368 47.75c.277.962 2.647 9.273 5.267 18.467 2.62 9.194 4.923 16.558 5.118 16.363C27.631 81.702 17.516 46 16.39 46c-.289 0-.299.788-.022 1.75m63.861-.235C78.468 49.518 80.696 53 83.741 53 85.584 53 86 52.448 86 50c0-1.65-.413-3-.918-3-.505 0-1.518-.209-2.25-.466-.733-.256-1.904.186-2.603.981m20.465 3.124c-.352.352-.321 1.14.068 1.75.698 1.096.867 1.646 1.113 3.611.069.55.827 1 1.684 1s1.298-.422.979-.939c-.319-.516.174-1.36 1.095-1.876 2.33-1.304.998-4.185-1.935-4.185-1.301 0-2.652.288-3.004.639m-13.566 1.987c-2.096 2.369.305 6.298 3.633 5.943 2.013-.214 2.559-.875 2.752-3.334.188-2.393-.226-3.191-1.886-3.637-2.855-.766-2.925-.75-4.499 1.028m-11.923 2.627c-1.136 1.369.67 4.747 2.539 4.747 1.503 0 2.202-3.654.94-4.916-1.406-1.406-2.204-1.368-3.479.169m20.085 2.653c-1.891 3.029.437 7.076 4.077 7.086 2.303.006 2.771-.357 2.38-1.85-.267-1.022-.071-2.599.436-3.505.719-1.285.346-1.865-1.696-2.642-3.526-1.34-3.823-1.288-5.197.911m35.137-.385c2.055 1.555 3.203 1.308 2.114-.454-.362-.587-1.42-1.053-2.35-1.035-1.485.028-1.456.209.236 1.489M111 59.462c0 2.324.225 2.488 2.061 1.505 2.328-1.246 2.114-3.304-.394-3.79-1.213-.236-1.667.387-1.667 2.285m-29.808.398c-1.387.88-.672 6.14.835 6.14 3.61 0 5.216-3.357 2.773-5.8-1.408-1.408-1.857-1.451-3.608-.34M62.195 64.5c.02 1.65.244 2.204.498 1.231.254-.973.237-2.323-.037-3-.274-.677-.481.119-.461 1.769m42.805-1c0 .825-.45 1.5-1 1.5s-1 .675-1 1.5.45 1.5 1 1.5 1 .6 1 1.333c0 1.288 5.919 2.02 6.069.75.038-.32.232-1.82.432-3.333.283-2.15-.046-2.75-1.51-2.75-1.03 0-2.151-.45-2.491-1-.934-1.511-2.5-1.198-2.5.5m44-1.091c0 .19.675.906 1.5 1.591.865.718 1.5.815 1.5.229 0-.558-.675-1.274-1.5-1.591-.825-.316-1.5-.419-1.5-.229m-60.718 3.292c-1.92.372-2.055.689-1.009 2.364C88.484 70.005 93 70.806 93 69.082c0-1.575-1.183-4.089-1.857-3.946-.354.075-1.641.329-2.861.565M77 68.417c0 .779-.439 1.566-.974 1.75-.536.183-.702 1.371-.369 2.64.39 1.486 1.122 2.108 2.056 1.75.798-.307 2.061-.557 2.807-.557 1.823 0 1.472-4.173-.481-5.718-2.055-1.626-3.039-1.583-3.039.135M252 68c0 .55.9 1 2 1s2-.45 2-1-.9-1-2-1-2 .45-2 1M52.631 82.419c-1.856 7.389-2.046 9.427-.748 8.031.923-.992 3.343-13.557 2.73-14.17-.193-.194-1.086 2.569-1.982 6.139M240 80c0 .55.849 1 1.886 1s3.142.652 4.678 1.449c3.68 1.909 5.365.77 2.322-1.57C246.361 78.937 240 78.308 240 80M62.3 88c0 3.025.187 4.263.416 2.75.229-1.513.229-3.987 0-5.5S62.3 84.975 62.3 88M201 88c0 1.253 1.061 1.253 3 0 1.213-.784 1.069-.972-.75-.985-1.238-.008-2.25.435-2.25.985M24.004 90.823c-1.923.187-3.953.72-4.512 1.184-.559.464-3.711 1.832-7.004 3.042-3.293 1.209-6.416 2.592-6.938 3.074-.523.483-1.76.877-2.75.877-1.576 0-1.8.949-1.8 7.619v7.618l3.25-2.442c1.787-1.343 4.037-2.732 5-3.087.963-.355 1.75-1.109 1.75-1.677 0-.567.683-1.031 1.518-1.031.834 0 3.084-1.614 5-3.586C19.433 100.442 21 99.112 21 99.46c0 .347 1.103-.402 2.452-1.665 4.319-4.043 5.317-4.689 6.158-3.985.453.38.179-.21-.61-1.31-.789-1.1-1.449-2.004-1.467-2.009-.018-.004-1.606.145-3.529.332M195.5 91c-.731 1.183.248 1.183 3 0 1.928-.829 1.921-.862-.191-.93-1.205-.038-2.469.38-2.809.93M63 95.969c0 .532.675.709 1.5.393.825-.317 1.5-.753 1.5-.969 0-.216-.675-.393-1.5-.393s-1.5.436-1.5.969m148.532 1.384c-1.74 1.272-1.751 1.496-.192 3.723.913 1.303 1.66 1.792 1.66 1.087 0-.704.445-1.006.989-.67.593.367.718-.109.312-1.191-.616-1.644-.506-1.671 1.262-.302 1.79 1.386 1.833 1.368.574-.239-.75-.956-1.839-1.445-2.42-1.086-.659.407-.816.026-.418-1.011.773-2.014.603-2.044-1.767-.311M55.699 98.634c-.349.349-2.336.822-4.417 1.051-2.08.229-4.21.844-4.732 1.366-.523.522-1.518.949-2.212.949-1.491 0-16.32 6.848-32.084 14.816L1.009 122.5l-.005 66.75L1 256h22.3c16.011 0 22.638-.338 23.5-1.2.933-.933 1.2-.933 1.2 0 0 .807 2.079 1.2 6.354 1.2h6.354l-2.269-4.75c-2.659-5.567-13.823-42.698-18.821-62.597-1.913-7.616-3.712-14.08-3.997-14.365-.285-.285-.522 6.114-.527 14.221-.005 8.107-.293 15.021-.64 15.365-.347.344-.481-8.036-.297-18.624.307-17.65.946-22.161 2.483-17.5 2.557 7.76 13.737 27.427 17.678 31.099 1.387 1.292 3.062 3.654 3.723 5.25 1.619 3.909 3.378 3.748 2.582-.236-1.082-5.406-9.526-22.973-14.174-29.487-4.357-6.105-4.393-6.219-1.7-5.369C52.81 171.549 55 172.393 55 172.955c0 .341.926.689 2.058.774 2.379.18 4.819-2.03 6.911-6.259.809-1.634 2.721-4.61 4.25-6.614 1.53-2.004 2.781-4.157 2.781-4.785 0-.628.73-2.255 1.622-3.616l1.621-2.475 1.629 3.26c1.895 3.794 5.377 4.749 8.153 2.238 1.022-.926 2.448-1.485 3.167-1.243 1.608.542 3.733-2.067 3.776-4.634.018-1.044-1.543-3.429-3.468-5.298-2.073-2.013-3.5-4.372-3.5-5.786 0-1.313-.439-3.541-.975-4.952-.537-1.411-.588-2.565-.114-2.565 1.154 0 1.982-5.948.92-6.605-.46-.284-.379-1.371.18-2.415.559-1.045.938-2.255.844-2.689-.095-.435.084-1.466.397-2.291 1.102-2.901 1.553-6 .874-6-.725 0-.857.289-6.637 14.5-3.92 9.637-5.489 12.18-5.489 8.894 0-3.215 3.674-13.205 8.422-22.903 3.084-6.3 4.052-9.205 3.238-9.722-2.166-1.378-3.053-.777-1.101.745 1.255.98 1.428 1.422.488 1.25-.8-.145-1.498.411-1.552 1.236-.054.825-2.034 5.55-4.399 10.5s-4.933 10.755-5.707 12.9c-.773 2.145-2.748 5.182-4.388 6.75-2.063 1.971-2.502 2.85-1.425 2.85 1.806 0 1.12 3.435-1.218 6.105-.774.883-1.139 2.458-.813 3.5.441 1.408.248 1.322-.749-.333-1.281-2.125-1.396-2.143-2.498-.378-.717 1.149-.8 2.204-.218 2.786.581.581-.23.855-2.143.723-2.286-.159-2.939.148-2.539 1.192.88 2.292-.991 1.598-2.276-.845-.651-1.238-.979-1.513-.728-.613.335 1.202-.045 1.505-1.433 1.143-1.664-.436-1.714-.67-.416-1.968.81-.81 1.218-1.887.905-2.393-.869-1.405-1.669-1.094-.849.331.396.688.334.899-.136.471-.471-.428-.959-1.482-1.086-2.342-.126-.859.011-1.323.304-1.03.292.293 1.716-.566 3.164-1.908 2.89-2.679 4.204-2.99 5.819-1.375.755.755 1.218.485 1.587-.925.39-1.49.109-1.877-1.116-1.535-.9.251-.657-.063.542-.696 2.063-1.091 2.87-4.91 1.037-4.91-.472 0-.171-.688.67-1.529.841-.841 1.275-2.191.965-3-.655-1.707-1.959-1.914-2.861-.455-.346.559-1.047.758-1.559.441-.512-.316-.931-.023-.931.651s-.296.929-.658.567c-.362-.362-1.242-.173-1.956.42-1.405 1.166-3.749.301-2.901-1.071.285-.461-.421-.592-1.568-.292-1.586.415-1.766.748-.752 1.391 1.023.649.926.85-.415.862-.962.008-1.75.52-1.75 1.137 0 .732-.589.645-1.692-.25-1.15-.932-1.451-.971-.941-.122.931 1.55-.568 1.649-2.08.137-.631-.631-1.684-.76-2.432-.297-.726.448-2.003.922-2.837 1.051-4.328.674-11.78 2.605-13.702 3.551-1.202.592-3.193.812-4.425.49-1.542-.403-2.805.066-4.054 1.505-1.165 1.344-3.265 2.195-5.87 2.381-3.763.268-4.006.131-3.367-1.89 1.517-4.794 2.992-6.061 15.9-13.664 11.357-6.689 19.5-12.24 19.5-13.292 0-.581.263-.792.585-.471.321.322 1.333-.057 2.25-.841.916-.785 1.918-1.31 2.228-1.168.309.142 2.726-1.647 5.372-3.976 2.645-2.328 5.204-3.989 5.687-3.691 1.306.808 1.062-.991-.322-2.375-1.347-1.347-2.17-1.497-3.101-.566M220 100c0 2.192 1.468 2.67 2.595.845.475-.768.271-.88-.61-.335-.962.594-1.15.362-.686-.846.351-.915.202-1.664-.33-1.664-.533 0-.969.9-.969 2m-102.467 2.895c-.347 1.093-3.43 3.755-6.851 5.916-7.194 4.543-9.882 7.189-7.304 7.189.895 0 1.622.806 1.622 1.8 0 2.7 2.019 4.2 5.652 4.2 2.548 0 4.292-1.036 8.05-4.783 6.084-6.066 10.092-7.833 14.379-6.339 2.727.951 2.981.901 1.919-.378-.673-.811-.952-2.553-.621-3.873.89-3.548-1.562-4.95-9.375-5.361-6.118-.321-6.906-.149-7.471 1.629m86.28 1.788c.721.289 1.584.253 1.916-.079.332-.332-.258-.568-1.312-.525-1.165.048-1.402.285-.604.604m7.187.637c0 .492.62.656 1.378.365.758-.291 1.91-.001 2.559.643.906.898 1.032.779.541-.51-.65-1.709-4.478-2.135-4.478-.498m-46.871 5.296c-.86 1.887-1.509 2.387-2.021 1.558-.552-.892-1.264-.659-2.646.868-1.658 1.832-1.96 1.889-2.461.46-.506-1.441-.881-1.384-3.276.5-1.488 1.17-3.129 1.866-3.646 1.547-.518-.32-1.266-.055-1.664.589-.483.781-.288.901.585.362.892-.551 1.068-.42.553.414-.415.672-1.408.972-2.206.666-2.55-.979-.428 1.24 5.679 5.94 6.278 4.831 7.4 4.911 11.487.824 1.415-1.415 1.818-1.454 2.654-.256.756 1.083 1.103 1.121 1.492.162.279-.687.947-1.25 1.483-1.25.537 0 .698.45.358 1-1.343 2.173.371.846 1.878-1.454 1.234-1.883 1.374-3.068.603-5.096l-1.005-2.642-1.759 2.172c-1.753 2.165-1.758 2.16-1.591-1.404.093-1.967-.25-3.576-.761-3.576s-1.276-.937-1.7-2.082c-.732-1.981-.831-1.947-2.036.698m36.684-1.933c.721.289 1.584.253 1.916-.079.332-.332-.258-.568-1.312-.525-1.165.048-1.402.285-.604.604m.825 2.817c.317.825 1.004 1.5 1.528 1.5s.674-.45.334-1-.179-1 .358-1c.536 0 1.202.563 1.48 1.25.301.747.536.545.583-.5.055-1.215-.675-1.75-2.39-1.75-1.783 0-2.308.416-1.893 1.5M63.08 123.25c-1.237 1.986-1.225 2.104.101 1.009.827-.683 1.823-.922 2.214-.531s.414-.063.051-1.008c-.819-2.134-.689-2.163-2.366.53m78.469 6.001c.92 4.229 1.663 5.2 9.753 12.738 9.106 8.485 9.479 9.298 6.217 13.575-1.442 1.89-3.034 3.436-3.539 3.436-1.179 0-.134-2.949 1.922-5.422 1.311-1.577 1.329-1.767.098-1.058-1.244.717-1.288.602-.258-.671 1.037-1.282.823-1.726-1.297-2.692-3.178-1.448-2.994-1.483-3.156.593-.262 3.343-2.308 7.41-3.525 7.005-1.881-.627-5.877-9.083-6.196-13.113-.379-4.777-2.108-6.642-6.155-6.642-3.687 0-6.374 3.106-4.598 5.314 1.348 1.675-.383 5.686-2.454 5.686-2.376 0-5.336 2.902-4.687 4.594.297.773.011 1.406-.635 1.406-.68 0-.252 1.296 1.016 3.077 1.62 2.276 1.899 3.369 1.068 4.2-.618.618-1.123 2.111-1.123 3.319 0 2.639-6.48 8.651-8.836 8.197-2.823-.544-2.442-3.669.849-6.96 3.662-3.662 5.288-7.308 4.445-9.965-.785-2.474-1.369-2.345-5.208 1.147-3.778 3.437-3.99 3.991-1.25 3.275 1.1-.288 2-.07 2 .485 0 .554-1.125 1.291-2.5 1.636s-2.5 1.017-2.5 1.493c0 1.631-5.07 4.209-7.046 3.582-2.618-.832-2.461-2.585.545-6.08 2.776-3.228 3.322-8.154 1.004-9.043-.865-.332-2.973.72-4.987 2.489-3.121 2.74-3.306 3.17-1.753 4.075 1.586.924 1.562 1.015-.272 1.043-1.106.016-2.6.974-3.32 2.128-.895 1.433-1.969 1.927-3.385 1.556-1.44-.376-1.755-.223-1.031.501 1.265 1.265 4.973 1.506 7.878.513 1.854-.633 2.221-.261 2.804 2.848.835 4.449 4.24 6.408 8.089 4.654 2.253-1.026 2.646-.887 3.638 1.29 1.56 3.425 5.646 4.66 9.735 2.94 2.823-1.187 3.664-1.16 6.288.196 4.075 2.108 7.365 1.128 8.656-2.576.919-2.635 1.395-2.922 3.978-2.406 3.982.797 6.878-.969 7.696-4.69.591-2.691 1.001-3.011 3.166-2.467 3.956.992 5.913-.204 7.323-4.476 1.305-3.954 2.994-5.354 2.994-2.481 0 1.568 2.701 1.998 4.61.735 1.776-1.175 4.39-6.912 4.39-9.634 0-1.659 1.125-3.357 3.344-5.05 4.148-3.164 5.195-3.183 7.193-.135 1.739 2.654 3.435 3.553 7.963 4.221 2.943.434 2.955.418.648-.847-1.567-.859-3.332-3.847-5.288-8.946-1.622-4.231-3.477-7.562-4.148-7.445-2.487.432-7.287 3.497-9.52 6.08-1.701 1.967-2.641 2.393-3.574 1.619-1.406-1.167-3.618.374-3.618 2.52 0 .671-1.587 2.2-3.527 3.399l-3.527 2.18-4.366-3.578c-4.359-3.572-9.58-11.169-9.58-13.94 0-.806-.711-1.738-1.579-2.071-1.319-.506-1.463-.07-.872 2.643m52.118 3.416c-1.157 1.156-.722 4.333.592 4.333 1.486 0 3.896-3.511 3.015-4.392-.806-.806-2.775-.774-3.607.059m-3.837 2.87c-.708 1.235 1.7 7.033 2.429 5.85.301-.488.002-2.221-.665-3.85-.667-1.63-1.46-2.53-1.764-2M11.643 142.5c-1.821 1.821-3.031 1.969-2.042.25.411-.714.335-.898-.178-.429-.494.451-.903 1.576-.91 2.5-.007.923-.623 1.551-1.368 1.394-1.623-.341 2.496 4.985 5.21 6.736 1.02.658 1.59.77 1.268.248-.323-.522.549-.949 1.937-.949 2.557 0 4.173-.851 3.29-1.733-.265-.265-1.864-.087-3.552.398-2.709.777-3.202.592-4.189-1.575-1.603-3.518.144-6.34 3.926-6.34 1.631 0 2.965-.45 2.965-1 0-1.548-4.677-1.18-6.357.5M58.5 142c.34.55.816 1 1.059 1s.441-.45.441-1-.477-1-1.059-1-.781.45-.441 1m58.313-.317c.721.289 1.584.253 1.916-.079.332-.332-.258-.568-1.312-.525-1.165.048-1.402.285-.604.604M22.5 145c-.362.585.676 1 2.5 1 1.824 0 2.862-.415 2.5-1-.34-.55-1.465-1-2.5-1s-2.16.45-2.5 1m9.75 2.662c-2.425.979-1.211 1.986 1.851 1.536 2.2-.322 2.709-.704 1.75-1.311-1.488-.943-1.776-.961-3.601-.225m31.75 3.28c0 .86-.812 1.071-2.5.647-2.892-.726-3.25.142-.797 1.935 1.513 1.107 1.43 1.213-.75.952-1.349-.161-3.195-.59-4.102-.953-.907-.362-1.989-.109-2.404.563-.466.754-.34.966.329.552.597-.369 1.373-.206 1.724.362s1.057.774 1.569.457c.512-.316.931-.046.931.601 0 .683.837.956 1.999.653 1.099-.288 2.251-.115 2.559.383.308.498-.393.906-1.558.906-1.365 0-1.893.444-1.485 1.25.348.688-.012.463-.801-.5-1.514-1.847-3.263-2.447-2.221-.761.357.577-.069.727-1.025.36-1.17-.449-1.297-.837-.445-1.363.655-.405.783-.988.286-1.295-.497-.307-1.333-.251-1.857.125-1.301.935-1.488 4.324-.194 3.525.676-.418.788.363.326 2.26-1.536 6.31-1.785 8.468-.953 8.241.478-.131 1.96.131 3.293.582 1.795.608 2.741.387 3.649-.854.938-1.284 1.356-1.371 1.786-.373.309.717.289-.002-.045-1.596-.353-1.689-.217-2.659.326-2.324.959.593 1.011.333 1.446-7.277.141-2.475.694-5.073 1.228-5.774.534-.701.682-1.563.329-1.917-.354-.353-.643-.069-.643.633m70.647 1.642c.865 1.321 1.349 2.985 1.075 3.699-.331.862.388 1.298 2.14 1.299 1.451 0 3.876.328 5.388.728 1.558.413 2.75.323 2.75-.207 0-1.567-8-7.378-10.541-7.657-2.296-.252-2.326-.173-.812 2.138m-94.172-.544c-.421.682.333.806 2.191.359 3.832-.92 4.194-1.399 1.06-1.399-1.435 0-2.897.468-3.251 1.04M25 153.962c-2.227.68-2.301.847-.672 1.537 1.198.508 2.39.212 3.464-.862 1.749-1.749 1.18-1.887-2.792-.675m132.506 3.032c-.999 1.103-1.351 2.006-.783 2.006 1.258 0 3.752-2.858 3.08-3.53-.265-.265-1.299.42-2.297 1.524m-122.756-.2c-1.513.187-2.75.759-2.75 1.272 0 1.292 4.731 1.179 5.541-.133.863-1.395.5-1.543-2.791-1.139M233 158.059c0 .582.45.781 1 .441s1-.816 1-1.059-.45-.441-1-.441-1 .477-1 1.059m-188 2.21c-2.165.897-2.251 1.095-.644 1.477 1.021.243 2.341-.043 2.934-.636 1.612-1.612.531-2.01-2.29-.841M71.42 178.5c-.001 11 .145 15.636.325 10.303.179-5.333.18-14.333.001-20-.178-5.667-.325-1.303-.326 9.697m168.929-18.449c-.578.578-2.023 1.124-3.212 1.214-1.189.089-1.995.629-1.791 1.199.203.57 1.146.967 2.096.883 1.344-.119 1.593.378 1.123 2.25-.475 1.894-.208 2.403 1.261 2.403 1.025 0 2.696-.919 3.713-2.043 1.806-1.996 1.798-2.056-.345-2.617-2.485-.649-2.725-1.409-.994-3.14.667-.667.756-1.2.2-1.2-.55 0-1.473.473-2.051 1.051m-209.536.632c.721.289 1.584.253 1.916-.079.332-.332-.258-.568-1.312-.525-1.165.048-1.402.285-.604.604m96.187.575c0 1.893 4.233 5.742 6.314 5.742.928 0 1.686.525 1.686 1.167 0 .641.297.869.661.506.788-.789-2.093-4.128-5.911-6.849-2.08-1.483-2.75-1.621-2.75-.566m89.008 1.716c-1.127.713-1.209 1.225-.337 2.097 1.369 1.369 3.329.409 3.329-1.63 0-1.664-.881-1.801-2.992-.467M234 168.5c0 .825.45 1.5 1 1.5s1-.675 1-1.5-.45-1.5-1-1.5-1 .675-1 1.5m-31 4.089c-1.375.76-3.47 1.388-4.656 1.396-1.662.012-2.037.474-1.634 2.015.288 1.1.073 2-.477 2-1.331 0-2.293 3.845-1.139 4.558.498.308.906.065.906-.541 0-1.726 3.736-5.298 4.833-4.62 1.283.793 4.167-.322 4.167-1.611 0-.55-.787-.7-1.75-.334-1.134.432-1.398.328-.75-.296.55-.529 1.868-1.118 2.929-1.309 1.061-.191 1.882-.786 1.825-1.322-.158-1.481-1.493-1.461-4.254.064m-81.333 1.078c-.367.366-.667 1.131-.667 1.7 0 .626.466.567 1.183-.15.651-.651.951-1.416.667-1.7-.284-.285-.817-.217-1.183.15m56.333.892c0 .857.45 1.281 1 .941.55-.34 1-1.041 1-1.559s-.45-.941-1-.941-1 .702-1 1.559m41.5.441c-.34.55.057 1 .882 1s1.778-.45 2.118-1c.34-.55-.057-1-.882-1s-1.778.45-2.118 1m-64.34 1.575c-.363.592-1.413 1.352-2.332 1.689-1.106.406-1.49 1.312-1.134 2.675.307 1.173.058 2.061-.577 2.061-.615 0-1.117.675-1.117 1.5s.402 1.5.893 1.5c1.066 0 2.107-2.458 2.107-4.975 0-2.021 2.277-3.353 5.908-3.456 1.325-.038 2.562-.519 2.75-1.069.462-1.353-5.666-1.282-6.498.075m86.507-.908c-1.508 1.507-.462 2.333 2.955 2.333 3.107 0 3.446-.214 2.378-1.5-1.288-1.551-4.166-2.001-5.333-.833m-52.419 5.976c-1.271 2.52-1.016 7.601.405 8.075 1.517.505 2.911-7.554 1.544-8.921-.682-.682-1.317-.407-1.949.846m43.367.822c-.888 1.355-1.615 2.875-1.615 3.377 0 .502-.67 1.469-1.489 2.149-.819.68-1.221 1.668-.894 2.198.33.534 1.58.035 2.813-1.123 1.22-1.146 2.522-1.78 2.894-1.408.372.371.676.177.676-.432 0-.61-.45-1.386-1-1.726-1.511-.934-1.198-2.5.5-2.5.825 0 1.5.675 1.5 1.5s.675 1.5 1.5 1.5c1.991 0 1.92-1.625-.104-2.401-.915-.352-1.358-1.256-1.031-2.107.947-2.468-1.996-1.704-3.75.973m-93.802-.782c.721.289 1.584.253 1.916-.079.332-.332-.258-.568-1.312-.525-1.165.048-1.402.285-.604.604m-117.224 4.328c-1.051 2.194-2.244 3.989-2.652 3.989-.635 0-2.612 4.267-3.476 7.5-.147.55-.599 1.9-1.003 3l-.736 2 2.094-2C18.202 198.221 25 185.584 25 183.427c0-2.583-1.468-1.47-3.411 2.584M241 184.941c0 1.068.385 2.179.856 2.47.47.291.643-.583.383-1.941-.564-2.951-1.239-3.239-1.239-.529m-36.376 1.598c-.965 2.514-.681 3.163.498 1.136.584-1.004.851-2.036.593-2.293-.257-.258-.749.263-1.091 1.157M83 188c-.9 1.681-.76 2 .871 2 1.449 0 1.809-.507 1.419-2-.288-1.1-.68-2-.871-2-.192 0-.83.9-1.419 2m-23.324 2.5c.271 2.2.951 5.35 1.51 7 .56 1.65 1.375 8.4 1.812 15 .437 6.6 1.454 13.885 2.26 16.188 1.034 2.955 1.153 4.501.404 5.25-.749.749-.477 1.062.924 1.062 2.182 0 2.886-3.839.975-5.326-.729-.568-.67-.985.189-1.333.924-.375 1.246-4.468 1.236-15.674-.015-17.517-.363-19.473-3.605-20.286-1.31-.329-2.381-1.224-2.381-1.989 0-.766-.638-1.392-1.417-1.392s-1.638-.562-1.908-1.25c-.27-.687-.27.55.001 2.75M183.5 188c.34.55.816 1 1.059 1s.441-.45.441-1-.477-1-1.059-1-.781.45-.441 1M87 189.441c0 2.094 1.742 2.842 2.689 1.154.446-.795 2.611-1.629 4.811-1.852 3.273-.333 2.955-.437-1.75-.575-4.418-.129-5.75.166-5.75 1.273m-10.524 1.597c-.327.529.17.962 1.105.962.934 0 2.21.699 2.835 1.554 1.37 1.874 4.7.912 3.916-1.131-.298-.776-.907-1.186-1.353-.91-.446.276-1.958.065-3.36-.468-1.63-.619-2.762-.622-3.143-.007m163.013-.02c-.915 1.48-.047 2.237 2.088 1.82 1.563-.304 1.579-.467.168-1.637-1.125-.932-1.761-.983-2.256-.183M87 196c0 1.1.45 2 1 2s1-.9 1-2-.45-2-1-2-1 .9-1 2m-12.953 18.964.047 19.536 1.909-4.889c2.053-5.257 5.528-9.611 7.671-9.611 1.714 0 1.71 1.67-.007 2.7-1.93 1.159-6.986 12.027-6.357 13.666.294.765.036 1.888-.571 2.495-1.778 1.778-.422 2.118 1.763.442 1.388-1.064 1.614-1.676.742-2.003-.691-.259-1.028-.84-.75-1.291.279-.451 1.603-.303 2.942.329 2.248 1.061 2.313 1.282.844 2.905-1.969 2.176-.491 2.294 2.497.2 3.406-2.385 2.644-.706-1.417 3.124-2.511 2.369-3.131 3.433-2 3.433.902 0 1.64-.45 1.64-1 0-1.841 2.857-1.025 3.5 1 .746 2.352 2.5 2.68 2.5.469 0-.843.686-1.795 1.526-2.117.966-.371 1.201-1.001.64-1.719-1.133-1.451-2.323-7.633-1.47-7.633.356 0 1.497.77 2.536 1.71 1.515 1.371 2.052 1.449 2.704.393.571-.923 1.018-.986 1.498-.21 1.223 1.979 2.326 1.175 2.943-2.143 1.177-6.34 1.395-7.269 2.112-9 .67-1.617-.27-2.258-2.739-1.868-.412.065-.75-.595-.75-1.465 0-.871-.562-1.396-1.25-1.167-.687.229-1.25.904-1.25 1.5 0 2.277-1.218 2.146-2.512-.272-.996-1.862-1.055-2.811-.225-3.641.829-.829.486-1.955-1.316-4.317-1.341-1.758-2.181-3.453-1.867-3.767.314-.314-.363-.867-1.505-1.229-1.141-.362-2.075-1.438-2.075-2.391 0-.953-.54-2.273-1.2-2.933-.66-.66-.86-1.2-.443-1.2.416 0-.041-1.35-1.016-3s-2.195-3-2.712-3c-.516 0-.2.816.702 1.814 1.266 1.399 1.37 2.085.455 3-1.686 1.686-2.477 1.477-3.076-.814-.287-1.1-1.24-2-2.116-2-.877 0-1.594-.45-1.594-1s.506-.887 1.125-.75 1.299-.216 1.512-.786c.213-.569-.519-1.035-1.625-1.035-1.949 0-2.011.612-1.965 19.535m166.703-13.572c-2.557 1.941-2.137 2.741.75 1.426 1.375-.626 2.5-1.517 2.5-1.979 0-1.195-1.221-.987-3.25.553M81.5 205c.34.55 1.068 1 1.618 1s.722-.45.382-1c-.34-.55-1.068-1-1.618-1s-.722.45-.382 1m-48.903 6.75c-.373 3.713-.885 8.55-1.137 10.75-.407 3.557-.353 3.684.481 1.151C33.007 220.416 34.517 205 33.767 205c-.27 0-.796 3.037-1.17 6.75m197.044-4.978c-.366.591.578 1.945 2.097 3.009 2.738 1.917 5.262 1.954 5.262.077 0-.537-.526-.651-1.17-.253-.805.498-.954.16-.477-1.082.591-1.541.465-1.617-.861-.516-1.293 1.073-1.776.987-2.871-.51-.845-1.157-1.553-1.416-1.98-.725m22.359.106c0 .482.64 1.408 1.421 2.057 1.167.968 1.325.81.884-.878-.526-2.01-2.305-2.92-2.305-1.179M72.195 210.5c.02 1.65.244 2.204.498 1.231.254-.973.237-2.323-.037-3-.274-.677-.481.119-.461 1.769M85 212c0 1.1.354 2 .787 2 .433 0 .855-.9.938-2 .083-1.1-.271-2-.787-2s-.938.9-.938 2m6-1.607c0 .949 2.993 1.427 3.527.563.325-.526-.336-.956-1.468-.956s-2.059.177-2.059.393m129.271 2.555c.086 1.142.623 1.921 1.193 1.731 1.421-.474 1.309-2.921-.157-3.41-.696-.232-1.127.467-1.036 1.679M249.5 213c-.34.55.11 1 1 1s1.34-.45 1-1c-.34-.55-.79-1-1-1-.21 0-.66.45-1 1m-14.947 2.941c-2.174 2.402-1.895 2.967 1.059 2.146 1.525-.424 1.933-1.092 1.464-2.402-.611-1.712-.755-1.697-2.523.256m-15.01.99c-1.002 1.621 1.175 2.114 2.466.558 1.005-1.211.944-1.489-.328-1.489-.859 0-1.822.419-2.138.931M245 218c0 .55.702 1 1.559 1s1.281-.45.941-1c-.34-.55-1.041-1-1.559-1s-.941.45-.941 1m-172.842 3c0 1.375.227 1.938.504 1.25.278-.687.278-1.812 0-2.5-.277-.687-.504-.125-.504 1.25m152.509.667c-1.268 1.267-.659 2.333 1.333 2.333 1.111 0 2-.667 2-1.5 0-1.522-2.115-2.051-3.333-.833M240 222c0 .55.702 1 1.559 1s1.281-.45.941-1c-.34-.55-1.041-1-1.559-1s-.941.45-.941 1m-111 3c0 .55.45 1 1 1s1-.45 1-1-.45-1-1-1-1 .45-1 1m-56.693 12.5c-.039 7.15.287 14.35.723 16 .54 2.039.761.106.69-6.035-.057-4.97.234-9.582.647-10.25.413-.668.297-1.215-.258-1.215-.555 0-1.172-2.588-1.37-5.75-.198-3.162-.393.1-.432 7.25M134 225.727c0 .455.701 1.828 1.557 3.05 1.409 2.012 1.409 2.223 0 2.223-.856 0-1.557-.401-1.557-.892 0-1.864-5.267-2.272-6.906-.535-1.472 1.559-1.427 1.649.581 1.171 1.571-.374 2.028-.133 1.643.869-.293.763-.934 1.387-1.425 1.387s-.893.848-.893 1.883c0 1.043-.893 2.117-2 2.407-1.197.313-2 1.364-2 2.616 0 1.152-.499 2.094-1.108 2.094-.683 0-.868.96-.481 2.5.614 2.45-.864 3.642-1.638 1.32-.217-.653-1.14-.893-2.066-.538-1.067.41-1.46 1.29-1.086 2.43.324.983-.297.438-1.38-1.212-2.149-3.276-2.096-4.454.118-2.617 1.105.917 1.547.805 2.057-.525.357-.931.215-2.127-.316-2.658-1.606-1.606-4.104.066-5.659 3.786-.807 1.933-1.965 3.514-2.573 3.514-.607 0-2.289 1.309-3.736 2.908-1.789 1.977-3.833 3.033-6.382 3.299-3.853.402-5.027-.503-2.107-1.624.904-.346 1.365-.909 1.024-1.249-.34-.34-1.299-.055-2.13.635-.831.69-2.178.999-2.992.687-.815-.313-1.747-.138-2.072.388-.325.526-.088.956.527.956s.797.52.404 1.156c-1.247 2.017 10.225.244 13.498-2.086 1.604-1.143 3.632-1.802 4.507-1.466 1.879.721 2.148 2.556.341 2.321-2.388-.31-3.75.081-3.75 1.075 0 .609 4.536 1 11.607 1 9.906 0 11.523-.22 11.031-1.5-.316-.825-.187-1.5.286-1.5.474 0 1.121.675 1.438 1.5.416 1.086 2.119 1.5 6.166 1.5 3.195 0 5.344-.399 5.015-.931-.317-.512-.115-1.215.448-1.563.563-.348 1.293.071 1.623.931.72 1.875 6.421 2.128 8.186.363.66-.66 1.214-2.573 1.232-4.25.033-3.181 2.189-6.995 3.317-5.868.358.358.651-.046.651-.899 0-.852-.883-1.781-1.963-2.063-1.357-.355-1.837-1.162-1.557-2.617.223-1.156.018-2.103-.456-2.103-.473 0-1.511-.25-2.306-.555-1.004-.385-1.633.378-2.057 2.5-.743 3.714-2.306 3.928-3.855.528-.873-1.916-.868-2.811.021-3.7 1.835-1.835 1.383-4.513-1.05-6.216-1.222-.856-2.684-1.55-3.25-1.542-.565.009-.352.452.473.985.825.533 1.092.976.594.985-.498.008-2.41-1.133-4.25-2.536-1.839-1.403-3.344-2.178-3.344-1.722M29.52 231c-.426 2.475-1.795 7.635-3.043 11.468-1.248 3.832-1.705 6.196-1.016 5.255 1.66-2.271 5.899-18.158 5.303-19.875-.258-.742-.817.677-1.244 3.152m211.119-3.306c-.952.953-.772 5.106.249 5.737.488.302 1.088-.817 1.333-2.485.437-2.974-.315-4.519-1.582-3.252m13.028 2.973c-1.001 1-.803 5.535.214 4.907.484-.3 1.097-1.676 1.361-3.059.465-2.435-.204-3.22-1.575-1.848m-46.835 2.375c-.893 2.26 1.499 5.227 3.003 3.723 1.602-1.602 1.463-2.817-.248-2.16-.844.324-1.56-.191-1.779-1.282-.306-1.519-.469-1.566-.976-.281m38.168.517c0 .857.457 1.276 1.016.931.559-.346.758-1.047.441-1.559-.857-1.387-1.457-1.129-1.457.628m-48.817 1.987c.174.961-.245 1.943-.933 2.184-.687.24-1.25-.051-1.25-.647 0-.595-.684-1.083-1.519-1.083-1.15 0-1.359.669-.862 2.75 1.245 5.214 4.802 7.297 5.124 3 .092-1.238.415-3.235.716-4.439.302-1.204.067-2.486-.522-2.85-.637-.394-.942.046-.754 1.085m-64.427 2.663c-.259 1.765-.124 4.353.301 5.75.768 2.529.772 2.527.971-.459.11-1.65.347-4.238.526-5.75.459-3.874-1.225-3.444-1.798.459m-24.506-.849c-2.388 1.183-3.005 4.056-1.12 5.22.691.428.935.16.627-.691-.276-.764.419-2.401 1.545-3.639 2.249-2.473 2.21-2.506-1.052-.89m123.75-.364c0 1.213 2.805 2.533 3.629 1.709.298-.299-.396-1.045-1.543-1.659-1.447-.774-2.086-.789-2.086-.05M94.5 240c-.34.55-.141 1 .441 1S96 240.55 96 240s-.198-1-.441-1-.719.45-1.059 1m87.325 1.674c.426 2.093.678 2.345.969.97.217-1.021-.043-2.293-.576-2.826-.626-.626-.766.031-.393 1.856m50.166-.163c-1.35 1.626-.291 1.965 1.866.599.824-.523.967-1.101.363-1.474-.546-.338-1.549.056-2.229.875m3.509 1.067c-2.429 1.942-2.796 2.723-1.929 4.101.59.936 1.715 1.897 2.5 2.136 1.151.35 1.186.177.179-.89-1.999-2.119-1.453-3.193 1.275-2.508 2.345.588 2.478.435 1.86-2.142-.367-1.526-.716-2.847-.776-2.935-.06-.089-1.459.919-3.109 2.238m-75.608-.836c-.059.417-.222 2.64-.362 4.941-.218 3.601-.057 3.987 1.158 2.772.776-.776 2.082-1.786 2.902-2.245.82-.459 1.239-1.491.931-2.294-.646-1.685-4.468-4.306-4.629-3.174m16.724.817c-.799 2.082-.456 2.578 1.11 1.61.676-.418.828-1.273.36-2.029-.627-1.015-.956-.921-1.47.419m75.384.858c0 .87.713 1.583 1.583 1.583 1.766 0 1.459-2.153-.395-2.771-.654-.218-1.188.317-1.188 1.188m-152.303 1.458c.429.344 1.05.984 1.38 1.422.33.439 1.131.158 1.78-.625.968-1.166.72-1.422-1.38-1.422-1.408 0-2.209.281-1.78.625m-8.154 1.056c-.317.512-.118 1.213.441 1.559.559.345 1.016-.074 1.016-.931 0-1.757-.6-2.015-1.457-.628M136 246c0 .55.45 1 1 1s1-.45 1-1-.45-1-1-1-1 .45-1 1m46.373 1.351c.669 2.663-.7 3.733-1.79 1.399-.388-.831-.759-.891-1.107-.177-.289.59-1.864.877-3.5.637-1.914-.281-2.976-.002-2.976.783 0 .675.672.963 1.5.645 1.879-.721 1.868.292-.032 2.803-.894 1.182-1.468 1.427-1.468.628 0-1.062-.292-1.072-1.519-.053-1.238 1.027-1.853.957-3.328-.378-2.382-2.155-3.153-2.067-3.153.362 0 1.781.667 2 6.09 2 5.105 0 6.386-.364 7.923-2.25 1.732-2.126 1.824-2.139 1.66-.25-.16 1.847.476 2.01 8.327 2.136 4.675.075 7.488-.069 6.25-.319-1.238-.251-2.25-.924-2.25-1.495 0-.597-1.02-.783-2.396-.438-1.646.414-2.581.119-2.988-.943-.326-.85-.195-1.299.291-.999.486.301 1.156-.163 1.488-1.03.855-2.228.787-2.412-.895-2.412-.825 0-1.5.45-1.5 1s-.675 1-1.5 1-1.5-.873-1.5-1.941-.516-2.26-1.146-2.649c-.806-.499-.949.076-.481 1.941M195.5 247c.34.55 1.379.993 2.309.985 1.457-.014 1.484-.15.191-.985-1.958-1.266-3.282-1.266-2.5 0m14 0c.34.55.816 1 1.059 1s.441-.45.441-1-.477-1-1.059-1-.781.45-.441 1m42.5 0c0 .55.45 1 1 1s1-.45 1-1-.45-1-1-1-1 .45-1 1m-142.333 1.667c-1.311 1.311-.633 2.137 1.333 1.623 1.1-.288 2-.921 2-1.407 0-1.033-2.363-1.186-3.333-.216m45.412.916c.048 1.165.285 1.402.604.605.289-.722.253-1.585-.079-1.917-.332-.332-.568.258-.525 1.312M164.5 249c-.34.55-.141 1 .441 1s1.059-.45 1.059-1-.198-1-.441-1-.719.45-1.059 1m63.25 1.115c-3.235 2.414-3.484 3.456-.823 3.456 1.059 0 1.708-.353 1.441-.785-.268-.432.023-.786.644-.786 1.525 0 4.049-2.606 3.274-3.381-.937-.937-1.544-.737-4.536 1.496m-143.5-.373c-2.223.756-1.328 2.02 1.75 2.471 1.65.242 3 .177 3-.146 0-1.059-3.473-2.76-4.75-2.325m45.75.817c0 .857.45 1.281 1 .941.55-.34 1-1.041 1-1.559s-.45-.941-1-.941-1 .702-1 1.559m63.813-.876c.721.289 1.584.253 1.916-.079.332-.332-.258-.568-1.312-.525-1.165.048-1.402.285-.604.604M251 250c0 .55.477 1 1.059 1s.781-.45.441-1-.816-1-1.059-1-.441.45-.441 1m-54.333.667c-1.09 1.089-.767 2.081.885 2.715.89.341 1.291.173.941-.393-.336-.544.143-.989 1.065-.989 1.183 0 1.522.588 1.152 2-.624 2.387-.092 2.525 1.933.5 1.333-1.333 1.333-1.667 0-3-1.55-1.55-4.806-2.004-5.976-.833M251.5 254c-.34.55.084 1 .941 1s1.559-.45 1.559-1-.423-1-.941-1-1.219.45-1.559 1m-46.5 1c0 .55.477 1 1.059 1s.781-.45.441-1-.816-1-1.059-1-.441.45-.441 1"/></svg>